<svg xmlns="http://www.w3.org/2000/svg" width="115.148" height="33.335" viewBox="0 0 115.148 33.335"><path id="Path_2010" data-name="Path 2010" d="M41.248 8.385h2.637c1.022 0 2.073.468 2.073 1.7a1.5 1.5 0 01-1.175 1.481v.019a1.561 1.561 0 011.462 1.6c0 1.471-1.28 1.968-2.561 1.968h-2.436zm1.2 2.752h1.07c.8 0 1.233-.334 1.233-.917 0-.6-.43-.841-1.338-.841h-.965zm0 3h1.08c.621 0 1.51-.124 1.51-1.013 0-.707-.487-.955-1.462-.955h-1.124zm9.106 1.013h-1.086v-.736h-.019a1.562 1.562 0 01-1.424.869 1.669 1.669 0 01-1.691-1.854v-2.865h1.147v2.541c0 .545.124 1.223.86 1.223a1.122 1.122 0 001.07-1.242v-2.522h1.147zm1.376-4.586h1.1v.764h.019a1.485 1.485 0 011.338-.9 1.3 1.3 0 01.277.029v1.053a1.333 1.333 0 00-.354-.048 1.2 1.2 0 00-1.233 1.233v2.455h-1.143zm7.978 0v4.175a2.376 2.376 0 01-2.589 2.7 3.843 3.843 0 01-2.274-.755l.659-.889a2.355 2.355 0 001.605.65c1.108 0 1.452-.669 1.452-1.577v-.334h-.019a1.805 1.805 0 01-1.5.688 2.263 2.263 0 01-2.264-2.389 2.243 2.243 0 012.245-2.408 1.783 1.783 0 011.576.822h.019v-.688zm-3.764 2.264a1.342 1.342 0 102.675 0 1.37 1.37 0 00-1.357-1.462 1.33 1.33 0 00-1.319 1.462m9.507.392h-3.483a1.276 1.276 0 001.309 1.127 1.39 1.39 0 001.213-.592l.764.611a2.281 2.281 0 01-1.968.917 2.3 2.3 0 01-2.465-2.4 2.34 2.34 0 012.427-2.456 2.174 2.174 0 012.217 2.484c0 .105 0 .2-.01.306m-1.136-.817a1.019 1.019 0 00-1.08-1.108 1.224 1.224 0 00-1.271 1.108zm2.255-1.835h1.1v.764h.019a1.485 1.485 0 011.338-.9 1.3 1.3 0 01.277.029v1.052a1.333 1.333 0 00-.354-.048 1.2 1.2 0 00-1.233 1.233v2.455h-1.147zm7.969 0v4.175a2.376 2.376 0 01-2.589 2.7 3.843 3.843 0 01-2.274-.755l.659-.889a2.355 2.355 0 001.605.65c1.108 0 1.452-.669 1.452-1.577v-.334h-.019a1.805 1.805 0 01-1.5.688 2.263 2.263 0 01-2.264-2.389 2.243 2.243 0 012.245-2.408 1.783 1.783 0 011.576.822h.019v-.688zm-3.764 2.264a1.342 1.342 0 102.675 0 1.37 1.37 0 00-1.353-1.463 1.33 1.33 0 00-1.319 1.462m9.507.392H78a1.276 1.276 0 001.309 1.127 1.39 1.39 0 001.213-.592l.764.611a2.281 2.281 0 01-1.968.917 2.3 2.3 0 01-2.465-2.4 2.34 2.34 0 012.427-2.456 2.174 2.174 0 012.217 2.484c0 .105 0 .2-.01.306m-1.139-.817a1.019 1.019 0 00-1.08-1.108A1.224 1.224 0 0078 12.4zm9.421-.115v2.865h-1.147v-2.542c0-.545-.124-1.223-.86-1.223-.717 0-1.013.669-1.013 1.261v2.5H85.6v-2.767c0-.564-.268-.994-.85-.994-.688 0-1 .631-1 1.242v2.523H82.6v-4.586h1.089v.736h.019a1.608 1.608 0 012.857 0 1.633 1.633 0 011.51-.869 1.669 1.669 0 011.691 1.854m5.7.936h-3.48a1.276 1.276 0 001.314 1.126 1.39 1.39 0 001.213-.592l.764.611a2.281 2.281 0 01-1.968.917 2.3 2.3 0 01-2.465-2.4 2.34 2.34 0 012.427-2.456 2.174 2.174 0 012.217 2.484c0 .105 0 .2-.01.306m-1.141-.817a1.019 1.019 0 00-1.08-1.108 1.224 1.224 0 00-1.271 1.108zm2.838-4.08a.689.689 0 11-.726.688.705.705 0 01.726-.688m-.564 2.245h1.147v4.585h-1.147zm2.542 0h1.089v.735h.019a1.562 1.562 0 011.424-.869 1.669 1.669 0 011.691 1.854v2.865h-1.147v-2.542c0-.545-.124-1.223-.86-1.223a1.122 1.122 0 00-1.07 1.242v2.523h-1.146zm10.224 4.586h-1.089v-.688h-.019a1.825 1.825 0 01-1.577.822 2.272 2.272 0 01-2.255-2.446 2.257 2.257 0 012.226-2.408 1.878 1.878 0 011.538.717h.029V7.927h1.147zm-2.455-.822a1.408 1.408 0 001.347-1.471 1.425 1.425 0 00-1.347-1.491 1.355 1.355 0 00-1.319 1.471 1.371 1.371 0 001.319 1.491m8.217-1.108h-3.487a1.276 1.276 0 001.309 1.127 1.39 1.39 0 001.213-.592l.764.611a2.5 2.5 0 01-4.433-1.481 2.34 2.34 0 012.427-2.456 2.174 2.174 0 012.217 2.484c0 .105 0 .2-.01.306M114 12.4a1.019 1.019 0 00-1.08-1.108 1.224 1.224 0 00-1.271 1.108zm-72.752 7.31h2.637c1.022 0 2.073.468 2.073 1.7a1.5 1.5 0 01-1.175 1.481v.019a1.561 1.561 0 011.462 1.6c0 1.471-1.28 1.968-2.561 1.968h-2.436zm1.2 2.752h1.07c.8 0 1.233-.334 1.233-.917 0-.6-.43-.841-1.338-.841h-.965zm0 3h1.08c.621 0 1.51-.124 1.51-1.013 0-.707-.487-.955-1.462-.955h-1.124zm9.287-.917h-3.483a1.276 1.276 0 001.309 1.127 1.39 1.39 0 001.213-.592l.764.611a2.5 2.5 0 01-4.433-1.481 2.34 2.34 0 012.427-2.456 2.174 2.174 0 012.217 2.484c0 .105 0 .2-.01.306m-1.139-.821a1.019 1.019 0 00-1.08-1.108 1.224 1.224 0 00-1.271 1.108zm2.255-1.835h1.1v.764h.019a1.485 1.485 0 011.338-.9 1.3 1.3 0 01.277.029v1.051a1.334 1.334 0 00-.354-.048A1.2 1.2 0 0054 24.019v2.455h-1.143zm3.478 0h1.089v.736h.019a1.562 1.562 0 011.424-.869 1.669 1.669 0 011.691 1.854v2.866h-1.144v-2.542c0-.545-.124-1.223-.86-1.223a1.122 1.122 0 00-1.07 1.242v2.523h-1.146zM14.115 7.273c.288.059.708.122 1 .158 0 0-.116.354-.419.271a1.748 1.748 0 01-.6-.367zm-5.554 2.951h16.318v6.747c0 3.179-.7 5.675-2.076 7.418a7.328 7.328 0 01-6.083 2.687 7.328 7.328 0 01-6.083-2.687c-1.377-1.743-2.076-4.239-2.076-7.418zm12.366 15.542l-12.1-7.713c.307 5.678 3.082 8.787 7.893 8.787a7.914 7.914 0 004.207-1.074m-5.848-15.305l9.563 6.1v-6.1h-9.563zM8.8 16.971c0 .27.007.534.017.794l12.334 7.862c2.28-1.53 3.493-4.477 3.493-8.656v-.14l-10-6.375H8.8zm5.676-15.643S14.291.757 13.8.892a2.833 2.833 0 00-.965.591l.021.1a26.183 26.183 0 011.618-.252m-.25 1.829a2.77 2.77 0 00-.964.591l.021.1c.464-.093 1.14-.194 1.617-.254 0 0-.186-.57-.674-.434m.212 1.133a2.8 2.8 0 00-.966.59l.024.1c.466-.1 1.14-.194 1.616-.255 0 0-.184-.57-.674-.434m-.422-2.268a2.811 2.811 0 00-.966.592l.023.1c.464-.093 1.141-.2 1.617-.253 0 0-.186-.573-.673-.436m-.062 5.982a1.747 1.747 0 00.6.367c.3.083.419-.271.419-.271-.3-.036-.716-.1-1-.158zm-.153.666a1.78 1.78 0 00.6.37c.306.081.42-.273.42-.273-.3-.034-.714-.1-1-.157zm4.517-1.249s.116.354.42.271a1.748 1.748 0 00.6-.367l-.014-.061c-.288.059-.708.122-1 .158m15.117 9.183A16.71 16.71 0 1114.806 0a.418.418 0 01.479.361l.889 4.739a.581.581 0 01-.157.624l-.623.47.58.1-.736 3.24h-.119a7.207 7.207 0 01-3.43-.781 10.924 10.924 0 01-.739-1.795 11.243 11.243 0 1011.54 0 10.928 10.928 0 01-.739 1.795 7.208 7.208 0 01-3.43.781H18.2L17.466 6.3l.579-.1-.616-.465a.581.581 0 01-.164-.627l.888-4.74a.418.418 0 01.48-.368A16.747 16.747 0 0133.44 16.615m-12.057-7.9l-2.455-1.85a1.24 1.24 0 01-.336.164c-.3.083-.42-.271-.42-.271.152-.018.336-.044.518-.072l-.39-.292-.553.095.644 2.811a8.214 8.214 0 002.992-.585m.9-1.875a11.171 11.171 0 00-4.8-1.442.242.242 0 00.093.15l4.017 3.03a16.678 16.678 0 00.683-1.735m-7.147-.448l-.386.291c.182.028.366.054.518.072 0 0-.116.354-.419.271a1.242 1.242 0 01-.337-.163l-2.45 1.852a8.23 8.23 0 002.993.584l.639-2.813zm.82-.995a11.171 11.171 0 00-4.8 1.443 16.028 16.028 0 00.687 1.738l4.023-3.035a.229.229 0 00.087-.145M33.2 16.615A16.475 16.475 0 0018.606.239a.184.184 0 00-.221.173L17.5 5.148v.015a11.48 11.48 0 11-1.553 0v-.017L15.054.41a.184.184 0 00-.22-.171A16.484 16.484 0 1033.2 16.615M18.964 1.328c.477.059 1.151.16 1.618.252l.022-.1a2.832 2.832 0 00-.965-.591c-.489-.135-.674.436-.674.436m-.423 2.266c.476.06 1.153.161 1.617.254l.021-.1a2.769 2.769 0 00-.964-.591c-.487-.136-.674.434-.674.434m-.213 1.134c.476.061 1.15.16 1.617.255l.024-.1a2.8 2.8 0 00-.97-.584c-.491-.136-.674.434-.674.434m.423-2.266c.476.058 1.152.159 1.617.253l.023-.1a2.813 2.813 0 00-.967-.592c-.487-.136-.673.437-.673.437m.137 5.913a1.746 1.746 0 00.6-.367l-.015-.061c-.288.059-.707.122-1 .158 0 0 .116.354.419.271m.149.675a1.779 1.779 0 00.6-.37l-.014-.06c-.291.058-.707.122-1 .157 0 0 .114.354.42.273m-5.63 2.165c.063.014.148.028.26.061a2.424 2.424 0 01.77.391.434.434 0 00-.035-.421.742.742 0 00-.447-.257.536.536 0 00-.544.095.178.178 0 00-.053.088c0 .022.016.037.047.044m-2.693.477c-.032-.154.137-.186.244-.143a.919.919 0 01.152.09c.232.151.438.286.718.159a4.815 4.815 0 01.567-.244 2.121 2.121 0 012.137.606.814.814 0 01.834-.16c.283.113.6.495.44.81a.906.906 0 01-.583.406.13.13 0 00-.117.124.37.37 0 00.5.181c.288-.1.748-.61 1.3-.313a1.009 1.009 0 01.363.311 2.1 2.1 0 01.141.189c.006.009.027.055.039.056.059.006.119.017.177.028a6.307 6.307 0 011.287.413 6.5 6.5 0 011.677 1.007 5.994 5.994 0 01.947 1.015c.076.1.149.211.217.321.016.026.043.1.076.1a1.985 1.985 0 01.723.1c.174.068.6.279.527.53-.02.073-.082 0-.135-.006-.074 0-.125.036-.094.077a.371.371 0 00.118.074.251.251 0 01.118.118c.055.109-.042.224-.107.111-.035-.06-.146-.219-.273-.107a.447.447 0 01.155.273c.009.118-.092.175-.206.114-.2-.106-.144-.534-.5-.534a2.206 2.206 0 00.2.639q.049.121.1.241c.023.052-.137.094-.181.1a.386.386 0 00.122.078c.066.025.083.014.091.1a.188.188 0 01-.018.1.269.269 0 01-.2.12.254.254 0 01.184.378c-.049-.032-.126-.067-.183-.032s.1.143.113.158c.044.039.138.178.046.2a.207.207 0 00-.123.087.246.246 0 01.12.364c-.032-.037-.155-.081-.168-.023a.61.61 0 00.218.281c.037.031.026.087.031.134q.011.132.033.264a1.639 1.639 0 00.191.6c.04.065.109.109.144.175a.393.393 0 01.037.184 2.592 2.592 0 01-.283 1 5.388 5.388 0 01-.329.6 4.536 4.536 0 01-.36.539 1.036 1.036 0 01-.59.395 1.2 1.2 0 00-.319.038.708.708 0 00-.3.271c-.062.09-.18.141-.206 0a.454.454 0 01.059-.247c.018-.042.184-.331.155-.35-.172-.113-.4.129-.505.295-.041.063-.1.194-.173.114a.185.185 0 01-.019-.142.8.8 0 01.112-.282 1.583 1.583 0 01.284-.343c-.181-.2-.422 0-.547.153-.062.076-.136.172-.239.1-.084-.056-.023-.184.018-.256a1.084 1.084 0 01.669-.5.3.3 0 00-.192-.192.539.539 0 00-.284.05c-.048.018-.113.063-.152.012-.127-.17.229-.359.34-.39a.592.592 0 01.476.091c.109.07.218.221.357.221.172 0 .293-.373.32-.519.037-.2.115-.546-.019-.73a7.31 7.31 0 01-1.027-2.712 3 3 0 010-.926c.04-.23.14-.546.006-.764-.042-.069-.2-.167-.251-.012a2.16 2.16 0 00.019.282c0 .175-.2.739-.2 1.043a7.076 7.076 0 01.106.791 1.37 1.37 0 00.052.671 3.226 3.226 0 01.2.306.529.529 0 01-.023.392 1.823 1.823 0 01-.233.391 1.734 1.734 0 00-.086-.177.63.63 0 00-.108-.157.836.836 0 00-.3-.211 1.415 1.415 0 00-.882.049c-.165.051-.318.11-.44.142-.207.055-.2.026-.236-.044a.989.989 0 00-.238-.316.439.439 0 00-.116-.076c-.109-.039-.054-.059-.024-.059a.424.424 0 01.158.033 2.37 2.37 0 01.225.112c.117.064.232.138.369.082.309-.126.1-.5.006-.7a2.309 2.309 0 01-.329-.953.794.794 0 01.328-.651 1.469 1.469 0 011.361.1c.03-.174-.169-.292-.3-.359-.6-.307-1.155-.1-1.8-.161-.109-.011-.309-.082-.221-.319a.808.808 0 00.054-.375c-.018-.139-.128-.231-.164-.361a.491.491 0 01.01-.246.131.131 0 00-.137-.148c-.1 0-.165.132-.176.182-.058.266.09.507.071.772a2.63 2.63 0 01-.124.592c-.049 0-.33-.008-.326.085 0 .061.192.116.238.132-.021.052-.072.22-.135.217-.084 0-.229-.009-.245.038s.114.118.187.146a1.754 1.754 0 01-.136.247c-.071 0-.21-.013-.217.025s.046.063.077.087.077.025.051.073a2.479 2.479 0 01-.141.224c-.043-.006-.165-.025-.132.047.02.043.058.058.034.1a2.377 2.377 0 01-1.332 1.093 1.492 1.492 0 01-1.089-.134c.059-.013.2-.048.171-.16a.175.175 0 00-.24-.087c-.031.019-.148.162-.17.157a.667.667 0 01-.168-.069c-.083-.047-.1-.1.006-.136.027-.009.173-.024.194-.057s.013-.061-.024-.114c-.049-.071-.195-.067-.273-.068a1.867 1.867 0 01-.41.017c-.07-.026.035-.145.064-.176a.5.5 0 01.287-.166c.077-.014.329-.044.236-.19a.47.47 0 00-.214-.173c-.125-.048-.263-.01-.385-.057-.15-.058-.006-.179.083-.219a.617.617 0 01.31-.033.976.976 0 01.35.157c.114.07.23.065.2-.088a.665.665 0 00-.194-.316c-.042-.04-.117-.064-.14-.12s.023-.1.081-.1a.793.793 0 01.663.3c.061.1.016.168.046.266.019.063.054.086.127.122-.035.06-.082.145-.1.169-.038.046-.092.033-.133.091a.123.123 0 00.082.178.3.3 0 00.269-.081 2.176 2.176 0 00.235-.382 3.645 3.645 0 00.446-1.231 2.655 2.655 0 00-.4-1.81 2.388 2.388 0 00-.986-.8 5.326 5.326 0 00-2.059-.449 1.66 1.66 0 01-.333-.023.747.747 0 01-.167-.061 1.274 1.274 0 00-.039-.252c-.016-.069-.113-.339-.01-.38s.205.282.27.341a.652.652 0 00.345.1 1.336 1.336 0 00.874-.072.464.464 0 00.126-.6 1.174 1.174 0 00-.466-.523 5.211 5.211 0 00-.778-.4q-.178-.078-.356-.152c-.1-.041-.283-.116-.283-.185 0-.129.187-.2.29-.236-.111-.066-.26-.169-.288-.3M18.4 16.47c-.031.073.217.328.376.479.118.111.525.55.61.644a.128.128 0 00.091.049c.092 0 .1-.107.1-.159a5 5 0 01.046-.233c.023-.074.1-.351-.092-.434l-.756-.31c-.091-.037-.347-.107-.376-.037m-4.483-3.681l-.17-.042v.061a.253.253 0 01-.257.274.381.381 0 01-.323-.143.328.328 0 01-.02-.308l.018-.048-.05-.014-.21-.059a.183.183 0 00-.047-.007c-.089 0-.133.046-.141.081a.6.6 0 00.129.536.683.683 0 00.562.266.6.6 0 00.6-.5c.006-.034.016-.07-.086-.094m-1.327-.638a.242.242 0 00.169.113 29.19 29.19 0 011.27.361.193.193 0 00.063.011.152.152 0 00.151-.13.149.149 0 00-.088-.182c-.273-.07-.693-.2-1.086-.317-.012 0-.019-.017-.009-.025s.069-.047.043-.085-.08-.029-.111-.022c-.088.02-.345.108-.4.2a.085.085 0 000 .076m-2.74 4.287c.086.029.269.1.269.216 0 .088-.227.049-.286.053-.16.012-.2.1-.059.2.217.142.447.266.668.4a2.322 2.322 0 00.566.258 2.176 2.176 0 010-.368.14.14 0 01.2-.147c.105.033.108.26.107.323 0 .081-.028.215.033.281s.05.04.114.054c.132.028.349.065.483.083a1.746 1.746 0 00.852-.031.389.389 0 00.176-.632.816.816 0 00-.615-.242 3.2 3.2 0 01-.842-.081c-.256-.09-.182-.31-.231-.523a.314.314 0 00-.179-.222c-.071-.033-.22-.049-.228-.146-.021-.252.428-.266.584-.245a.737.737 0 00-.228-.259 2.979 2.979 0 01-.2-.237.761.761 0 00-.574-.282c-.088 0-.254.082-.105.153a.8.8 0 01.214.14.806.806 0 01.122.586 1.486 1.486 0 00-.664-.284c-.085-.011-.451-.065-.382.1.021.051.161.11.239.153a1.273 1.273 0 01.2.136.51.51 0 01.218.465c-.1-.047-.845-.294-.846-.086 0 .078.29.15.4.185m8.081 4.469c-.156.029-.306.025-.371-.141a.607.607 0 00-.281-.37.529.529 0 00-.218-.058.453.453 0 01-.2-.029c-.154-.087.092-.282.169-.315-.283-.192-.73-.315-.957.026-.142.215.145.15.276.15a.277.277 0 01.3.293.734.734 0 00-.732.268c-.026.041-.068.117-.014.155s.159-.039.239-.069a.341.341 0 01.442.094 1.107 1.107 0 00-.446.282c-.033.042-.078.1-.045.155.049.073.172-.03.224-.057.118-.062.319-.16.437-.118.2.073 0 .177-.074.238a1.173 1.173 0 00-.284.284c-.064.113-.023.234.119.161a1.124 1.124 0 01.373-.18 1.071 1.071 0 01.351.041 4.589 4.589 0 00.861.094.375.375 0 00.231-.052.259.259 0 00.057-.062.64.64 0 01-.076-.072c-.042-.046-.258-.29-.162-.341s.223-.079.277-.01a.889.889 0 00.2.221c.18.117.218.145.546-.019.169-.085.459-.239.366-.479-.276-.709-1.123-.176-1.608-.088m-7.021-8.288a.433.433 0 00-.023.337c.029.093.069.133.117.033.033-.069.138-.229.106-.3-.023-.054-.152-.124-.2-.066m.337.143a.433.433 0 00-.023.337c.029.094.069.132.117.032.033-.069.138-.229.106-.3-.022-.053-.152-.123-.2-.066M9.978 13q.069.148.128.3c.029.075.063.118.148.122a4.922 4.922 0 011.363.24 3.018 3.018 0 01.345.145c.065.032.173.1.224 0 .062-.118-.044-.161-.13-.205a4.133 4.133 0 00-.8-.307 1.956 1.956 0 01-.779-.322 2.4 2.4 0 01-.4-.422.211.211 0 00-.137-.1.146.146 0 00-.136.226c.063.105.118.216.17.327m4.668 4.247l.038-.01a2.179 2.179 0 00-.095-.772 1.935 1.935 0 00-.513-.881c-.11-.108-.268-.226-.381-.169-.256.129-.432.247-.729.433a2.386 2.386 0 01-.923.449c-.125.012-.188.055-.247-.047-.014-.023-.038-.087-.049-.115-.069-.168-.265-.186-.266-.153a1.614 1.614 0 01.088.2.92.92 0 01.029.156.858.858 0 00.021.172c.017.049.206.06.294.065.482.027.978-.042 1.322.4a.708.708 0 01.135.42c0 .26.252.13.382.062-.03-.048-.112-.2-.04-.234.1 0 .177.1.22.183.015.028.106-.009.131-.019.069-.028.055-.042.032-.1s-.057-.219.046-.164c.051.027.142.215.174.211a.274.274 0 00.158-.073.386.386 0 01-.056-.153c-.012-.133.125-.062.228.134M9.413 2.63q.229-.1.468-.189.212.418.43.827t.454.813q.07.12.14.235a9.746 9.746 0 01.285.495 1.183 1.183 0 00.18.253.5.5 0 00.233.145.4.4 0 00.3-.065l.123.2-.673.4-.675.4a3.184 3.184 0 01-.421.207 1.09 1.09 0 01-.4.083.722.722 0 01-.37-.1.954.954 0 01-.323-.354.746.746 0 01-.1-.557.912.912 0 01.293-.487.968.968 0 01-.7.12.859.859 0 01-.547-.44.9.9 0 01-.14-.545 1.07 1.07 0 01.17-.483 1.794 1.794 0 01.366-.407 3.336 3.336 0 01.453-.319 4.435 4.435 0 01.445-.227m.3 1.3q-.132-.2-.252-.4a1.448 1.448 0 00-.086-.131.41.41 0 00-.1-.1.245.245 0 00-.124-.041A.287.287 0 009 3.3a.46.46 0 00-.172.165.493.493 0 00-.065.209.71.71 0 00.02.227.816.816 0 00.088.217.9.9 0 00.4.4.6.6 0 00.547-.086c.026-.015.051-.031.075-.047l.076-.047q-.121-.207-.252-.4m.949 1.738l.059-.038-.6-1.021a.292.292 0 00-.051.023l-.053.031-.043.025a.466.466 0 00-.17.157.4.4 0 00-.059.193.612.612 0 00.028.209 1.006 1.006 0 00.092.208.721.721 0 00.311.306.445.445 0 00.422-.056l.059-.037M5.893 8.854q-.382-.363-.774-.715l-.2-.184a1.572 1.572 0 01-.173-.2 1.1 1.1 0 01-.223-.869 1.284 1.284 0 01.153-.421 2.229 2.229 0 01.288-.4 2.859 2.859 0 01.475-.431 1.163 1.163 0 01.479-.206.984.984 0 01.5.051 1.635 1.635 0 01.531.34q.26.234.5.476t.5.476a1.423 1.423 0 00.2.155.413.413 0 00.184.065.361.361 0 00.19-.042.811.811 0 00.211-.166l.156.141a3.768 3.768 0 01-.377.561q-.211.26-.439.512L6.409 6.5a2.446 2.446 0 00-.3-.237.773.773 0 00-.3-.122.572.572 0 00-.307.039.909.909 0 00-.32.245.99.99 0 00-.256.437.605.605 0 00.035.369 1.074 1.074 0 00.235.332q.16.159.344.325.369.332.744.644t.766.619l-.392.435q-.377-.369-.759-.732m-3.771 1.741c.3-.014.6-.036.892-.049s.59-.033.885-.061l.019-.04-1.445-.673.432-.8c.351.179.673.348 1.015.533s.692.36 1.05.526c.061.028.122.058.182.09s.121.062.182.09a1.6 1.6 0 00.217.082.655.655 0 00.214.029.376.376 0 00.192-.062.437.437 0 00.149-.189l.228.105q-.166.372-.334.742t-.339.74a2.947 2.947 0 01-.219.393 1.168 1.168 0 01-.285.3.785.785 0 01-.363.149.824.824 0 01-.453-.09.98.98 0 01-.485-.433.993.993 0 01-.072-.648q-.193 0-.383.025t-.383.038l-.218.013a4.382 4.382 0 00-.25.023.682.682 0 00-.607.326l-.208-.1zm2.7 1a.6.6 0 00.209.014.385.385 0 00.184-.072.449.449 0 00.139-.181l.094-.2-1.219-.564a.65.65 0 00-.029.042.406.406 0 00-.023.045.587.587 0 00-.064.284.489.489 0 00.075.231.689.689 0 00.175.186 1.408 1.408 0 00.247.145 1.13 1.13 0 00.214.074m-3.9 4.022a5.441 5.441 0 01.036-.65 2.823 2.823 0 01.2-.79 1.758 1.758 0 01.412-.6 1.6 1.6 0 01.619-.357 1.959 1.959 0 01.827-.061 1.891 1.891 0 01.858.293 1.732 1.732 0 01.541.582 2.154 2.154 0 01.257.782 3.532 3.532 0 01.006.888 4.169 4.169 0 01-.078.454 2.416 2.416 0 01-.143.43l-.887-.238.025-.216a1.391 1.391 0 00.312-.053.552.552 0 00.216-.121.544.544 0 00.133-.206 1.252 1.252 0 00.069-.3 1.087 1.087 0 00-.065-.552 1.147 1.147 0 00-.294-.416 1.5 1.5 0 00-.45-.277 2.115 2.115 0 00-.54-.136 2.275 2.275 0 00-.647.009 1.286 1.286 0 00-.512.2 1.106 1.106 0 00-.355.4 1.724 1.724 0 00-.17.614l-.008.072a.285.285 0 000 .079l1.341.15-.1.842q-.126-.026-.247-.045t-.249-.035q-.26-.03-.516-.049T1 16.261a2.82 2.82 0 01-.076-.646m.427 4.9q-.053-.4-.122-.788-.061-.346-.127-.691t-.132-.69q.711-.08 1.409-.182t1.4-.226A1.392 1.392 0 004 17.879a.444.444 0 00.161-.1.362.362 0 00.094-.155.6.6 0 00.016-.232l.231-.04.4 2.268-.456.08c-.005-.139-.015-.276-.027-.411s-.031-.273-.055-.412l-.019-.1a.909.909 0 00-.023-.1l-1.12.2.172.915-.437.026-.136-.87-.758.133q-.137.024-.238.047a.372.372 0 00-.16.074.224.224 0 00-.075.14.778.778 0 00.013.25l.047.269a.8.8 0 00.059.208.253.253 0 00.092.105.357.357 0 00.144.046l.208.023.039.22zm4.478 7.613a5.473 5.473 0 01-.478-.442 2.821 2.821 0 01-.479-.661 1.763 1.763 0 01-.2-.7 1.6 1.6 0 01.12-.705 1.959 1.959 0 01.48-.676 1.887 1.887 0 01.773-.475 1.735 1.735 0 01.794-.046 2.15 2.15 0 01.766.3 3.52 3.52 0 01.688.561 4.068 4.068 0 01.3.35 2.391 2.391 0 01.24.384l-.749.532-.151-.157a1.381 1.381 0 00.158-.275.551.551 0 00.044-.244.544.544 0 00-.074-.234 1.265 1.265 0 00-.19-.246 1.087 1.087 0 00-.467-.3 1.158 1.158 0 00-.508-.038 1.486 1.486 0 00-.5.171 2.1 2.1 0 00-.449.33 2.271 2.271 0 00-.4.5 1.29 1.29 0 00-.173.521 1.107 1.107 0 00.083.53 1.73 1.73 0 00.363.532l.05.052a.27.27 0 00.062.048l.968-.94.586.612a6.584 6.584 0 00-.378.332q-.189.181-.367.367t-.367.367a2.833 2.833 0 01-.546-.353m4.1 2.759q-.341-.212-.685-.408-.305-.173-.614-.342l-.611-.334q.391-.6.756-1.2t.717-1.225a1.336 1.336 0 00.1-.2.445.445 0 00.028-.185.356.356 0 00-.06-.172.6.6 0 00-.169-.16l.116-.2 2 1.136-.228.4q-.166-.126-.334-.241t-.353-.22l-.092-.052a.926.926 0 00-.09-.045l-.561.989.815.45-.258.354-.758-.449-.38.67c-.046.08-.084.152-.115.214a.369.369 0 00-.045.17.225.225 0 00.061.147.786.786 0 00.2.149l.237.135a.786.786 0 00.2.087.252.252 0 00.14 0 .344.344 0 00.127-.082l.15-.146.194.11zm5.314 1.47q.043-.683.1-1.364t.1-1.364q-.394.587-.767 1.182t-.738 1.2l-.422-.076q-.164-.7-.3-1.391t-.315-1.385q-.165.667-.342 1.324t-.327 1.332l-.591-.2c.086-.185.179-.395.274-.636s.185-.485.273-.73.167-.491.24-.739a7.22 7.22 0 00.178-.755l.007-.038a.267.267 0 00-.079-.261.456.456 0 00-.112-.057q-.064-.023-.129-.04l.049-.243a12.32 12.32 0 011.071.204l.243.064q.122.611.256 1.21T14.2 30.8q.348-.52.682-1.041c.223-.347.427-.684.638-1.043l.89.092c-.055.473-.118.992-.163 1.46s-.072.942-.094 1.422c-.011.236.033.311.112.391a.584.584 0 00.279.119l-.043.241zm5.267-.4c-.265.035-.528.075-.788.121q-.346.061-.691.126l-.69.132q-.079-.711-.181-1.409t-.225-1.4a1.339 1.339 0 00-.055-.217.451.451 0 00-.1-.161.359.359 0 00-.155-.095.6.6 0 00-.232-.016l-.04-.231 2.268-.4.079.456q-.208.008-.411.026t-.412.055l-.1.019a.964.964 0 00-.1.023l.2 1.12.915-.171.025.437-.871.135.132.758q.024.138.047.238a.372.372 0 00.074.16.224.224 0 00.14.074.763.763 0 00.25-.012l.269-.047a.786.786 0 00.208-.059.25.25 0 00.106-.092.362.362 0 00.045-.144l.023-.208.22-.038zm2-2.523l.409.977.278.663-.848.356q-.226-.655-.466-1.292t-.507-1.274a1.5 1.5 0 00-.119-.235.4.4 0 00-.143-.139.371.371 0 00-.19-.041.805.805 0 00-.259.06l-.084-.2a3.984 3.984 0 01.516-.313 8.47 8.47 0 01.547-.254l.134-.056zM25.8 25.8q.215.3.433.592c.434.576.873 1.148 1.32 1.728l-.4.372a49.039 49.039 0 00-3.2-.689q.395.484.778.962c.256.319.545.647.826.956l-.5.31c-.123-.192-.228-.343-.359-.528s-.265-.37-.4-.556q-.228-.317-.459-.629t-.469-.618a.559.559 0 00-.278-.218.461.461 0 00-.338.092l-.128-.162q.118-.128.246-.246c.085-.079.174-.155.267-.228a2.047 2.047 0 01.255-.172q.776.176 1.548.336t1.553.3q-.4-.461-.779-.927a15.932 15.932 0 00-.774-.878l.434-.393q.21.3.425.6m4.161-2.786a1.779 1.779 0 01.3.765 2.077 2.077 0 01-.065.838 3.266 3.266 0 01-.389.862q-.133.213-.281.41a4.26 4.26 0 01-.323.383q-.429-.3-.857-.591t-.872-.567l-.581-.364a1.446 1.446 0 00-.21-.112.447.447 0 00-.184-.042.353.353 0 00-.176.055.708.708 0 00-.176.165l-.192-.114.525-.842q.259-.417.519-.844a2.68 2.68 0 01.455-.557 1.479 1.479 0 01.531-.322 1.275 1.275 0 01.6-.047 1.79 1.79 0 01.673.271 2.292 2.292 0 01.7.647m-2.977.689a1.555 1.555 0 01-.06.1l2.007 1.207.2.128a.464.464 0 00.173.069.253.253 0 00.165-.031.536.536 0 00.17-.186.859.859 0 00.147-.507 1.175 1.175 0 00-.13-.48 1.62 1.62 0 00-.315-.421 2.421 2.421 0 00-.411-.327 2.5 2.5 0 00-.4-.2 1.621 1.621 0 00-.436-.112.978.978 0 00-.346.026.893.893 0 00-.279.135 1.208 1.208 0 00-.231.221 2.885 2.885 0 00-.2.28 3.3 3.3 0 00-.06.1m5.267-4.125q-.12.384-.223.765-.091.339-.176.68l-.171.681q-.678-.228-1.354-.429t-1.366-.387a1.4 1.4 0 00-.22-.041.451.451 0 00-.187.019.354.354 0 00-.151.1.593.593 0 00-.112.2l-.226-.061.6-2.224.447.12q-.08.192-.149.384t-.123.4l-.028.1a.892.892 0 00-.021.1l1.1.294.23-.9.407.161-.244.847.743.2c.089.024.168.044.236.058a.379.379 0 00.176 0 .224.224 0 00.127-.1.767.767 0 00.094-.231l.071-.264a.788.788 0 00.034-.213.249.249 0 00-.039-.135.353.353 0 00-.111-.1l-.179-.109.057-.215zm.129-4.691q.011.25.006.5-.467.045-.927.1t-.922.128q-.137.021-.27.045a10.048 10.048 0 01-.569.086 1.206 1.206 0 00-.3.076.5.5 0 00-.219.164.4.4 0 00-.05.307l-.231.042q-.067-.39-.13-.772t-.124-.774a3.177 3.177 0 01-.04-.468 1.092 1.092 0 01.069-.406.721.721 0 01.231-.307.951.951 0 01.447-.172.746.746 0 01.554.113.914.914 0 01.348.451.966.966 0 01.142-.694.857.857 0 01.608-.35.9.9 0 01.558.067 1.071 1.071 0 01.389.334 1.8 1.8 0 01.246.489 3.328 3.328 0 01.133.538 4.467 4.467 0 01.05.5m-3.271.066c.006.024.01.046.014.068l1.168-.184a.279.279 0 000-.056l-.009-.061-.008-.049a.463.463 0 00-.085-.215.4.4 0 00-.158-.124.612.612 0 00-.205-.05 1.026 1.026 0 00-.227.01.726.726 0 00-.4.178.445.445 0 00-.1.414c0 .022.008.045.014.069m1.964-.253q.232-.05.469-.088a1.39 1.39 0 00.153-.033.4.4 0 00.132-.06.243.243 0 00.083-.1.286.286 0 00.011-.16.456.456 0 00-.091-.22.494.494 0 00-.171-.137.707.707 0 00-.219-.064.812.812 0 00-.234 0 .9.9 0 00-.517.231.6.6 0 00-.118.541c0 .029.01.059.017.088s.012.058.017.088q.237-.037.469-.088m-.571-5.735q.153.371.318.731.147.319.3.636l.3.633q-.667.258-1.316.535t-1.3.576a1.369 1.369 0 00-.2.109.445.445 0 00-.132.134.363.363 0 00-.052.174.606.606 0 00.044.228l-.213.1-.963-2.091.42-.194c.041.132.084.263.131.391s.1.256.159.384l.044.1a.941.941 0 00.047.089l1.033-.476-.4-.841.416-.136.353.807.7-.322c.085-.039.157-.075.218-.107a.371.371 0 00.136-.112.224.224 0 00.037-.155.787.787 0 00-.076-.238l-.114-.248a.817.817 0 00-.11-.186.253.253 0 00-.116-.078.352.352 0 00-.151-.007l-.207.031-.093-.2zM2.761 24.026c.177-.24.349-.486.525-.723s.346-.479.511-.725l-.02-.04-1.431.7L2 22.394c.36-.16.693-.3 1.052-.453s.716-.31 1.07-.483c.06-.029.122-.058.185-.085s.125-.055.185-.084a1.6 1.6 0 00.2-.117.654.654 0 00.157-.148.372.372 0 00.073-.188.435.435 0 00-.053-.235l.225-.11q.184.363.365.728t.36.73a2.941 2.941 0 01.167.418 1.17 1.17 0 01.056.413.788.788 0 01-.115.373.825.825 0 01-.355.295.982.982 0 01-.642.1.994.994 0 01-.55-.348c-.079.1-.153.205-.222.313s-.14.215-.212.321l-.127.177a5.384 5.384 0 00-.14.208.682.682 0 00-.13.677l-.205.1zm2.477-1.464a.606.606 0 00.142-.154.385.385 0 00.06-.187.448.448 0 00-.052-.221l-.1-.2-1.207.59c0 .018.01.035.015.049a.435.435 0 00.02.046.586.586 0 00.18.228.487.487 0 00.226.088.687.687 0 00.254-.019 1.41 1.41 0 00.268-.1 1.158 1.158 0 00.193-.119M21.961 4.826q.2-.308.395-.618c.379-.614.753-1.23 1.132-1.857l.491.236c.136 1.064.31 2.173.517 3.228q.308-.543.615-1.074c.2-.354.405-.742.592-1.116l.472.357c-.134.184-.237.336-.362.526s-.25.382-.373.577q-.213.327-.42.655t-.405.664a.562.562 0 00-.1.338.462.462 0 00.209.282l-.105.178q-.163-.063-.318-.14t-.31-.166a2.04 2.04 0 01-.253-.176q-.117-.788-.248-1.564T23.2 3.6q-.285.538-.582 1.062c-.2.349-.369.675-.544 1.043l-.524-.262c.138-.2.278-.411.409-.616m6.367 1.133c-.112.276-.217.557-.328.83s-.216.55-.315.829l.029.034L28.94 6.61l.549.728c-.309.245-.609.477-.92.711s-.616.478-.916.734q-.076.065-.158.128t-.158.128a1.588 1.588 0 00-.165.163.664.664 0 00-.115.183.376.376 0 00-.024.2.435.435 0 00.11.214l-.191.163q-.268-.306-.535-.614t-.53-.617a2.972 2.972 0 01-.266-.363 1.167 1.167 0 01-.157-.386.788.788 0 01.019-.39.823.823 0 01.271-.374.98.98 0 01.6-.259 1 1 0 01.619.2q.078-.176.137-.359t.126-.364l.079-.2c.029-.077.057-.156.084-.237a.682.682 0 00-.042-.688l.174-.148zm-2.033 2.033a.613.613 0 00-.1.184.387.387 0 00-.012.2.45.45 0 00.107.2l.145.17 1.022-.872a.691.691 0 00-.026-.043.4.4 0 00-.031-.04.587.587 0 00-.231-.176.486.486 0 00-.241-.029.684.684 0 00-.242.081 1.411 1.411 0 00-.234.163 1.159 1.159 0 00-.157.164" fill="#151312"/></svg>