<svg xmlns="http://www.w3.org/2000/svg" width="100.573" height="44.756" viewBox="0 0 100.573 44.756"><g id="Group_2045" data-name="Group 2045" transform="translate(-15 -262.953)"><path id="Path_1984" data-name="Path 1984" d="M150.678 34.344V36.6l2.125-2.255h1.497l-2.125 2.148 2.331 3.29H153l-1.638-2.445-.686.693v1.752h-1.2v-5.439z" transform="translate(-96.896 237.246)"/><path id="Path_1985" data-name="Path 1985" d="M171.142 41.206a1.247 1.247 0 01.19-.632 1.291 1.291 0 01.427-.4 1.871 1.871 0 01.582-.217 3.337 3.337 0 01.651-.065 4.4 4.4 0 01.6.042 1.84 1.84 0 01.556.164 1.094 1.094 0 01.411.34.948.948 0 01.16.575v2.049a4.062 4.062 0 00.031.51.92.92 0 00.107.366h-1.1a1.54 1.54 0 01-.049-.186 1.6 1.6 0 01-.027-.194 1.408 1.408 0 01-.609.373 2.452 2.452 0 01-.716.107 1.939 1.939 0 01-.525-.068 1.2 1.2 0 01-.427-.214.986.986 0 01-.286-.366 1.231 1.231 0 01-.1-.525 1.145 1.145 0 01.118-.552.979.979 0 01.3-.347 1.349 1.349 0 01.427-.194 4.426 4.426 0 01.483-.1q.244-.038.48-.06a2.937 2.937 0 00.419-.069.731.731 0 00.289-.133.293.293 0 00.1-.256.572.572 0 00-.057-.277.413.413 0 00-.152-.16.588.588 0 00-.221-.076 1.755 1.755 0 00-.27-.019.817.817 0 00-.5.137.609.609 0 00-.213.457zm2.5.8a.489.489 0 01-.171.1 1.712 1.712 0 01-.221.057c-.079.015-.161.028-.248.038s-.173.024-.259.039a1.889 1.889 0 00-.24.061.712.712 0 00-.206.1.494.494 0 00-.141.164.532.532 0 00-.053.252.508.508 0 00.053.243.4.4 0 00.145.156.611.611 0 00.213.081 1.393 1.393 0 00.251.023.958.958 0 00.5-.107.713.713 0 00.259-.255.827.827 0 00.1-.3 2.062 2.062 0 00.019-.244z" transform="translate(-113.02 233.096)"/><path id="Path_1986" data-name="Path 1986" d="M191.072 40v.549h.023a1.244 1.244 0 01.533-.5 1.542 1.542 0 01.67-.157 1.834 1.834 0 01.712.118 1.057 1.057 0 01.438.327 1.269 1.269 0 01.225.511 3.189 3.189 0 01.065.666v2.422h-1.082v-2.227a1.381 1.381 0 00-.152-.727.589.589 0 00-.541-.24.749.749 0 00-.64.263 1.462 1.462 0 00-.2.865v2.064h-1.082V40z" transform="translate(-127.26 233.096)"/><path id="Path_1987" data-name="Path 1987" d="M209.929 36.8v.724h-.792v1.95a.366.366 0 00.457.457c.061 0 .119 0 .175-.007s.109-.013.16-.023v.837a2.689 2.689 0 01-.3.031 7.358 7.358 0 01-.328.008 3.165 3.165 0 01-.476-.035 1.111 1.111 0 01-.4-.133.705.705 0 01-.27-.282 1 1 0 01-.1-.48v-2.325h-.655V36.8h.655v-1.18h1.081v1.18z" transform="translate(-140.252 236.293)"/><path id="Path_1988" data-name="Path 1988" d="M219.846 41.111a1.8 1.8 0 011.051-1.074 2.248 2.248 0 01.837-.149 2.282 2.282 0 01.842.149 1.8 1.8 0 011.055 1.074 2.423 2.423 0 01.145.857 2.39 2.39 0 01-.145.853 1.847 1.847 0 01-.411.651 1.792 1.792 0 01-.644.416 2.337 2.337 0 01-.842.144 2.3 2.3 0 01-.837-.144 1.8 1.8 0 01-.64-.416 1.847 1.847 0 01-.411-.651 2.391 2.391 0 01-.144-.853 2.424 2.424 0 01.144-.857zm.983 1.318a1.222 1.222 0 00.156.4.831.831 0 00.293.286.9.9 0 00.457.107.921.921 0 00.461-.107.828.828 0 00.3-.286 1.221 1.221 0 00.156-.4 2.3 2.3 0 00.046-.461 2.364 2.364 0 00-.046-.465 1.185 1.185 0 00-.156-.4.872.872 0 00-.3-.285.894.894 0 00-.461-.11.832.832 0 00-.75.4 1.185 1.185 0 00-.156.4 2.364 2.364 0 00-.046.465 2.3 2.3 0 00.046.456z" transform="translate(-149.461 233.096)"/><path id="Path_1989" data-name="Path 1989" d="M240.57 40v.549h.023a1.244 1.244 0 01.533-.5 1.542 1.542 0 01.67-.157 1.834 1.834 0 01.712.118 1.057 1.057 0 01.438.327 1.269 1.269 0 01.225.511 3.191 3.191 0 01.065.666v2.422h-1.082v-2.227a1.381 1.381 0 00-.152-.727.589.589 0 00-.541-.24.749.749 0 00-.64.263 1.462 1.462 0 00-.2.865v2.064h-1.082V40z" transform="translate(-164.313 233.096)"/><path id="Path_1990" data-name="Path 1990" d="M269.515 34.344a3.339 3.339 0 01.708.069 1.543 1.543 0 01.549.224 1.047 1.047 0 01.354.416 1.455 1.455 0 01.126.64 1.192 1.192 0 01-.186.685 1.361 1.361 0 01-.552.45 1.3 1.3 0 01.75.507 1.662 1.662 0 01.088 1.584 1.392 1.392 0 01-.431.492 1.912 1.912 0 01-.617.282 2.806 2.806 0 01-.712.091h-2.635v-5.44zm-.152 2.2a.859.859 0 00.525-.152.575.575 0 00.206-.5.636.636 0 00-.068-.312.515.515 0 00-.183-.191.767.767 0 00-.263-.095 1.686 1.686 0 00-.308-.027h-1.12v1.272zm.069 2.308a1.6 1.6 0 00.335-.034.823.823 0 00.282-.115.577.577 0 00.194-.217.748.748 0 00.072-.35.7.7 0 00-.236-.6 1 1 0 00-.624-.179h-1.3v1.493z" transform="translate(-184.834 237.246)"/><path id="Path_1991" data-name="Path 1991" d="M289.327 42.989a1.107 1.107 0 001.264.072.675.675 0 00.289-.347h.952a1.807 1.807 0 01-.7 1.013 2.064 2.064 0 01-1.142.3 2.233 2.233 0 01-.838-.149 1.736 1.736 0 01-.632-.423 1.9 1.9 0 01-.4-.655 2.394 2.394 0 01-.141-.838 2.3 2.3 0 01.145-.823 1.925 1.925 0 01.411-.659 1.945 1.945 0 01.636-.438 2.039 2.039 0 01.819-.16 1.871 1.871 0 01.876.194 1.754 1.754 0 01.613.522 2.158 2.158 0 01.346.746 2.793 2.793 0 01.076.876h-2.841a1.093 1.093 0 00.267.769zm1.222-2.072a.761.761 0 00-.59-.213.938.938 0 00-.431.088.8.8 0 00-.274.217.789.789 0 00-.145.274 1.219 1.219 0 00-.049.259h1.759a1.253 1.253 0 00-.269-.625z" transform="translate(-200.57 233.096)"/><path id="Path_1992" data-name="Path 1992" d="M308.092 40v.732h.015a1.313 1.313 0 01.206-.34 1.333 1.333 0 01.3-.266 1.441 1.441 0 01.358-.172 1.276 1.276 0 01.4-.061.847.847 0 01.236.039v1.005a2.315 2.315 0 00-.183-.027 1.867 1.867 0 00-.206-.011 1.158 1.158 0 00-.5.1.879.879 0 00-.331.27 1.082 1.082 0 00-.179.4 2.159 2.159 0 00-.053.5v1.775h-1.082V40z" transform="translate(-214.857 233.096)"/><path id="Path_1993" data-name="Path 1993" d="M320.9 40v.549h.023a1.244 1.244 0 01.533-.5 1.543 1.543 0 01.67-.157 1.834 1.834 0 01.712.118 1.057 1.057 0 01.438.327 1.27 1.27 0 01.225.511 3.19 3.19 0 01.065.666v2.422h-1.082v-2.227a1.381 1.381 0 00-.152-.727.589.589 0 00-.541-.24.749.749 0 00-.64.263 1.462 1.462 0 00-.2.865v2.064h-1.082V40z" transform="translate(-224.449 233.096)"/><path id="Path_1994" data-name="Path 1994" d="M152.268 73.787a1.208 1.208 0 00-.266-.3 1.226 1.226 0 00-.362-.2 1.248 1.248 0 00-.423-.073 1.394 1.394 0 00-.686.157 1.292 1.292 0 00-.457.418 1.832 1.832 0 00-.256.6 2.969 2.969 0 00-.08.693 2.758 2.758 0 00.08.666 1.788 1.788 0 00.256.583 1.3 1.3 0 00.457.416 1.394 1.394 0 00.686.156 1.107 1.107 0 00.857-.335 1.551 1.551 0 00.377-.884h1.158a2.776 2.776 0 01-.236.922 2.2 2.2 0 01-.5.7 2.131 2.131 0 01-.731.442 2.679 2.679 0 01-.921.152 2.779 2.779 0 01-1.124-.217 2.409 2.409 0 01-.842-.6 2.649 2.649 0 01-.525-.9 3.288 3.288 0 01-.182-1.108 3.409 3.409 0 01.182-1.131 2.726 2.726 0 01.525-.91 2.4 2.4 0 01.842-.609 2.913 2.913 0 011.973-.092 2.319 2.319 0 01.716.377 2.047 2.047 0 01.522.613 2.192 2.192 0 01.259.837h-1.158a.983.983 0 00-.141-.373z" transform="translate(-96.195 208.902)"/><path id="Path_1995" data-name="Path 1995" d="M171.6 79.584a1.248 1.248 0 01.19-.632 1.291 1.291 0 01.427-.4 1.871 1.871 0 01.582-.217 3.337 3.337 0 01.651-.065 4.4 4.4 0 01.6.042 1.84 1.84 0 01.556.164 1.094 1.094 0 01.411.34.948.948 0 01.16.575v2.049a4.059 4.059 0 00.031.51.92.92 0 00.107.366h-1.1a1.539 1.539 0 01-.049-.186 1.6 1.6 0 01-.027-.194 1.408 1.408 0 01-.609.373 2.452 2.452 0 01-.716.107 1.939 1.939 0 01-.525-.068 1.2 1.2 0 01-.427-.214.986.986 0 01-.286-.366 1.231 1.231 0 01-.1-.525 1.145 1.145 0 01.118-.552.979.979 0 01.3-.347 1.349 1.349 0 01.427-.194 4.425 4.425 0 01.483-.1q.244-.038.48-.06a2.937 2.937 0 00.419-.069.731.731 0 00.289-.133.293.293 0 00.1-.256.572.572 0 00-.057-.277.413.413 0 00-.152-.16.588.588 0 00-.221-.076 1.756 1.756 0 00-.27-.019.817.817 0 00-.5.137.609.609 0 00-.213.457zm2.5.8a.489.489 0 01-.171.1 1.712 1.712 0 01-.221.057c-.079.015-.161.028-.248.038s-.173.024-.259.039a1.888 1.888 0 00-.24.061.712.712 0 00-.206.1.494.494 0 00-.141.164.532.532 0 00-.053.252.508.508 0 00.053.243.4.4 0 00.145.156.61.61 0 00.213.081 1.392 1.392 0 00.251.023.958.958 0 00.5-.107.713.713 0 00.259-.255.827.827 0 00.1-.3 2.059 2.059 0 00.019-.244z" transform="translate(-113.359 204.367)"/><path id="Path_1996" data-name="Path 1996" d="M191.526 78.373v.549h.023a1.244 1.244 0 01.533-.5 1.542 1.542 0 01.67-.157 1.834 1.834 0 01.712.118 1.057 1.057 0 01.438.327 1.269 1.269 0 01.225.511 3.19 3.19 0 01.065.666v2.422h-1.082v-2.223a1.381 1.381 0 00-.152-.727.589.589 0 00-.541-.24.749.749 0 00-.64.263 1.462 1.462 0 00-.2.865v2.064H190.5v-3.938z" transform="translate(-127.6 204.367)"/><path id="Path_1997" data-name="Path 1997" d="M210.383 75.176v.724h-.792v1.95a.366.366 0 00.457.457c.061 0 .119 0 .175-.007s.109-.013.16-.023v.837a2.69 2.69 0 01-.3.031 7.358 7.358 0 01-.328.008 3.166 3.166 0 01-.476-.035 1.111 1.111 0 01-.4-.133.705.705 0 01-.27-.282 1 1 0 01-.1-.48V75.9h-.655v-.724h.655V74h1.081v1.18z" transform="translate(-140.592 207.564)"/><path id="Path_1998" data-name="Path 1998" d="M220.3 79.489a1.8 1.8 0 011.051-1.074 2.249 2.249 0 01.837-.149 2.282 2.282 0 01.842.149 1.8 1.8 0 011.055 1.074 2.424 2.424 0 01.145.857 2.39 2.39 0 01-.145.853 1.847 1.847 0 01-.411.651 1.792 1.792 0 01-.644.416 2.337 2.337 0 01-.842.144 2.3 2.3 0 01-.837-.144 1.8 1.8 0 01-.64-.416 1.847 1.847 0 01-.411-.651 2.391 2.391 0 01-.144-.853 2.424 2.424 0 01.144-.857zm.983 1.318a1.221 1.221 0 00.156.4.831.831 0 00.293.286.9.9 0 00.457.107.921.921 0 00.461-.107.828.828 0 00.3-.286 1.221 1.221 0 00.156-.4 2.3 2.3 0 00.046-.461 2.364 2.364 0 00-.046-.465 1.185 1.185 0 00-.156-.4.872.872 0 00-.3-.285.894.894 0 00-.461-.11.832.832 0 00-.75.4 1.185 1.185 0 00-.156.4 2.364 2.364 0 00-.046.465 2.3 2.3 0 00.046.456z" transform="translate(-149.801 204.367)"/><path id="Path_1999" data-name="Path 1999" d="M240.994 78.373v.549h.023a1.244 1.244 0 01.533-.5 1.542 1.542 0 01.67-.157 1.834 1.834 0 01.712.118 1.057 1.057 0 01.438.327 1.269 1.269 0 01.225.511 3.19 3.19 0 01.065.666v2.422h-1.082v-2.223a1.381 1.381 0 00-.152-.727.589.589 0 00-.541-.24.749.749 0 00-.64.263 1.462 1.462 0 00-.2.865v2.064h-1.082v-3.938z" transform="translate(-164.631 204.367)"/><path id="Path_2000" data-name="Path 2000" d="M269.253 77.658a1.116 1.116 0 01-.5.46 1.822 1.822 0 01-1.474-.031 1.549 1.549 0 01-.552-.465 2.109 2.109 0 01-.328-.674 2.832 2.832 0 01-.11-.792 2.663 2.663 0 01.11-.766 2 2 0 01.328-.651 1.636 1.636 0 01.545-.453 1.614 1.614 0 01.761-.172 1.552 1.552 0 01.667.149 1.165 1.165 0 01.5.438h.015v-1.98h1.085v5.439h-1.028v-.5zm-.046-1.946a1.139 1.139 0 00-.156-.4.884.884 0 00-.285-.278.84.84 0 00-.442-.106.88.88 0 00-.449.106.85.85 0 00-.293.282 1.24 1.24 0 00-.16.4 2.191 2.191 0 00-.049.469 2.012 2.012 0 00.053.457 1.243 1.243 0 00.172.408.949.949 0 00.3.289.8.8 0 00.431.111.859.859 0 00.445-.107.81.81 0 00.286-.286 1.263 1.263 0 00.152-.407 2.392 2.392 0 00.046-.473 2.329 2.329 0 00-.051-.465z" transform="translate(-184.336 208.518)"/><path id="Path_2001" data-name="Path 2001" d="M287.027 81.367a1.107 1.107 0 001.264.072.675.675 0 00.289-.347h.952a1.807 1.807 0 01-.7 1.013 2.064 2.064 0 01-1.142.3 2.233 2.233 0 01-.838-.149 1.736 1.736 0 01-.632-.423 1.9 1.9 0 01-.4-.655 2.394 2.394 0 01-.141-.838 2.3 2.3 0 01.145-.823 1.924 1.924 0 01.411-.659 1.944 1.944 0 01.636-.438 2.039 2.039 0 01.819-.16 1.871 1.871 0 01.875.194 1.754 1.754 0 01.613.522 2.157 2.157 0 01.347.746 2.793 2.793 0 01.076.876h-2.841a1.093 1.093 0 00.267.769zm1.222-2.072a.761.761 0 00-.59-.213.938.938 0 00-.431.088.8.8 0 00-.274.217.79.79 0 00-.145.274 1.217 1.217 0 00-.049.259h1.759a1.254 1.254 0 00-.27-.625z" transform="translate(-198.85 204.367)"/><path id="Path_2002" data-name="Path 2002" d="M315.863 72.722a3.339 3.339 0 01.708.069 1.543 1.543 0 01.549.224 1.048 1.048 0 01.354.416 1.455 1.455 0 01.126.64 1.192 1.192 0 01-.186.685 1.361 1.361 0 01-.552.45 1.3 1.3 0 01.75.507 1.662 1.662 0 01.088 1.587 1.392 1.392 0 01-.431.492 1.912 1.912 0 01-.617.282 2.806 2.806 0 01-.712.091h-2.64v-5.443zm-.152 2.2a.859.859 0 00.525-.152.575.575 0 00.206-.5.635.635 0 00-.068-.312.514.514 0 00-.183-.191.767.767 0 00-.263-.095 1.685 1.685 0 00-.308-.027h-1.12v1.272zm.069 2.308a1.6 1.6 0 00.335-.034.823.823 0 00.282-.115.577.577 0 00.194-.217.748.748 0 00.072-.35.7.7 0 00-.236-.6 1 1 0 00-.624-.179h-1.3v1.493z" transform="translate(-219.529 208.518)"/><path id="Path_2003" data-name="Path 2003" d="M335.675 81.367a1.107 1.107 0 001.264.072.675.675 0 00.289-.347h.952a1.807 1.807 0 01-.7 1.013 2.064 2.064 0 01-1.142.3 2.234 2.234 0 01-.838-.149 1.735 1.735 0 01-.632-.423 1.9 1.9 0 01-.4-.655 2.394 2.394 0 01-.141-.838 2.3 2.3 0 01.145-.823 1.924 1.924 0 01.411-.659 1.944 1.944 0 01.636-.438 2.038 2.038 0 01.819-.16 1.871 1.871 0 01.876.194 1.755 1.755 0 01.613.522 2.156 2.156 0 01.346.746 2.792 2.792 0 01.076.876h-2.841a1.093 1.093 0 00.267.769zm1.222-2.072a.761.761 0 00-.59-.213.938.938 0 00-.431.088.8.8 0 00-.274.217.791.791 0 00-.145.274 1.219 1.219 0 00-.049.259h1.759a1.253 1.253 0 00-.267-.625z" transform="translate(-235.266 204.367)"/><path id="Path_2004" data-name="Path 2004" d="M354.44 78.373v.727h.015a1.314 1.314 0 01.206-.34 1.332 1.332 0 01.3-.266 1.441 1.441 0 01.358-.172 1.276 1.276 0 01.4-.061.847.847 0 01.236.038v1.011a1.927 1.927 0 00-.183-.027 1.868 1.868 0 00-.206-.011 1.158 1.158 0 00-.5.1.879.879 0 00-.331.27 1.082 1.082 0 00-.179.4 2.157 2.157 0 00-.053.5v1.775h-1.082v-3.944z" transform="translate(-249.553 204.367)"/><path id="Path_2005" data-name="Path 2005" d="M367.254 78.373v.549h.023a1.244 1.244 0 01.533-.5 1.542 1.542 0 01.67-.157 1.834 1.834 0 01.712.118 1.057 1.057 0 01.438.327 1.269 1.269 0 01.225.511 3.19 3.19 0 01.065.666v2.422h-1.082v-2.223a1.381 1.381 0 00-.152-.727.589.589 0 00-.541-.24.749.749 0 00-.64.263 1.463 1.463 0 00-.2.865v2.064h-1.082v-3.938z" transform="translate(-259.145 204.367)"/><path id="Path_2006" data-name="Path 2006" d="M385.719 81.367a1.107 1.107 0 001.264.072.675.675 0 00.289-.347h.952a1.807 1.807 0 01-.7 1.013 2.064 2.064 0 01-1.142.3 2.234 2.234 0 01-.838-.149 1.736 1.736 0 01-.632-.423 1.9 1.9 0 01-.4-.655 2.394 2.394 0 01-.141-.838 2.3 2.3 0 01.145-.823 1.9 1.9 0 011.047-1.1 2.039 2.039 0 01.819-.16 1.871 1.871 0 01.875.194 1.754 1.754 0 01.613.522 2.157 2.157 0 01.347.746 2.794 2.794 0 01.076.876h-2.841a1.094 1.094 0 00.267.772zm1.222-2.072a.761.761 0 00-.59-.213.938.938 0 00-.431.088.8.8 0 00-.274.217.791.791 0 00-.145.274 1.217 1.217 0 00-.049.259h1.759a1.253 1.253 0 00-.269-.625z" transform="translate(-272.727 204.367)"/><path id="Path_2007" data-name="Path 2007" d="M5.716 4.658a.527.527 0 01-.521.517.519.519 0 01-.522-.521.521.521 0 111.042 0m4.77-1.644a1.581 1.581 0 01-.486.72 1.434 1.434 0 01.824-.062 1.165 1.165 0 01.787.8 1.2 1.2 0 01-.467 1.2 1.146 1.146 0 01-1.059.108l-.278-.168a2.076 2.076 0 001.1 1.31 2.35 2.35 0 002.057-.065 2.283 2.283 0 00.937-1.025 2.049 2.049 0 001.5 1.225 1.985 1.985 0 001.992-.826 3.616 3.616 0 00.3-.549 1.081 1.081 0 01-.781.084 1.051 1.051 0 01-.7-.8 1.137 1.137 0 01.531-1.2.782.782 0 01.7-.066l.023-.019a.953.953 0 01-.279-.953c.17-.6.749-.971 1.144-1.479a8.825 8.825 0 00-.315 2.917v4.455H1.1v-4.71a8.491 8.491 0 00-.32-2.644c.52.615 1.356 1.127 1.168 2.006-.1.145-.136.309-.3.422a.963.963 0 01.824.126A1.186 1.186 0 012.9 5.043a1.1 1.1 0 01-.782.761 1.1 1.1 0 01-.66-.126 1.987 1.987 0 00.363.677 1.948 1.948 0 001.8.718 1.975 1.975 0 001.591-1.245 2.265 2.265 0 002.1 1.329 2.285 2.285 0 002.035-1.5c0-.018-.01-.028-.019-.042a1.173 1.173 0 01-.975.23 1.111 1.111 0 01-.382-2.005 1.342 1.342 0 011.144-.108 1.36 1.36 0 01-.467-1.457c.114-.506.664-.835.91-1.29.485.587 1.186 1.173.933 2.028m8.645-3.02a7.949 7.949 0 00-2.458 2.133 1.29 1.29 0 00-.127 1.08 1.063 1.063 0 00-.551.273 1.773 1.773 0 00-.442 1.691 1.429 1.429 0 00.993 1.08 1.453 1.453 0 01-1.017.17 1.581 1.581 0 01-1.017-.785 1.133 1.133 0 00.636-.949 1.235 1.235 0 00-.486-.971 1.359 1.359 0 00-1.422-.024 1.246 1.246 0 00-.527 1.142 1.058 1.058 0 00.55.784 2.4 2.4 0 01-.593.677 1.574 1.574 0 01-1.591.019 2.75 2.75 0 00.508-.169 1.7 1.7 0 00.745-1.456 1.547 1.547 0 00-.914-1.436c-.117-.047-.249-.053-.358-.108a1.574 1.574 0 00.188-.569c.014-1.089-1.173-1.7-1.7-2.559v.021C9.12.821 8.179 1.291 7.923 2.15a1.4 1.4 0 00.128 1.014 3.606 3.606 0 00-.509.169A1.641 1.641 0 006.8 4.916a1.51 1.51 0 00.891 1.31 2.711 2.711 0 01.339.108 1.368 1.368 0 01-.72.187 1.521 1.521 0 01-1.441-.906 1.079 1.079 0 00.548-.915 1.24 1.24 0 00-.527-.99 1.349 1.349 0 00-1.381-.024 1.185 1.185 0 00-.527 1.056 1.136 1.136 0 00.612.911 2.067 2.067 0 01-.57.61 1.421 1.421 0 01-1.44-.013 1.5 1.5 0 00.594-.338 1.821 1.821 0 00.3-1.944 1.346 1.346 0 00-.913-.761 1.32 1.32 0 00-.235-1.268A8.594 8.594 0 000 .037a17.524 17.524 0 01.424 4.3v4.955h18.307V4.916a20.639 20.639 0 01.4-4.922m-4.668 4.659a.525.525 0 01-.521.516.519.519 0 01-.522-.521.521.521 0 111.042 0" transform="translate(15.002 262.959)"/><path id="Path_2008" data-name="Path 2008" d="M2.422 50.376v1.789a8.657 8.657 0 004.855 7.612 8.51 8.51 0 008.163-.552zm5.435-10.135l11.467 7.726v-7.726zm12.191 12.568a9.2 9.2 0 01-14.635 6.63 9.25 9.25 0 01-3.673-6.907l.005-12.957h18.29zM6.633 40.241H2.419l.005 9.265 13.65 9.308a9.237 9.237 0 003.25-6.152v-3.851z" transform="translate(13.697 233.33)"/><path id="Path_2009" data-name="Path 2009" d="M11.882 50.107a.321.321 0 01.169-.235l.194.023.933.506.084.128c.052-.174.042-.4.254-.488a.611.611 0 01.611.083.521.521 0 01.151.532.751.751 0 01-.254.272 10.143 10.143 0 011.78.868.364.364 0 01.146.442l-.085.108c.071.08.208.093.3.169l4.916 3.314c.768.4.688 1.226.83 1.927a2.748 2.748 0 01-.7-.127c.016.078.028.156.042.231l.382 3.761c-.043.39-.373.657-.594.972l-.763.953-1.633-1.056a1.457 1.457 0 011.144-.675 4.492 4.492 0 01.7.042 1.143 1.143 0 01-.7-.489 20.494 20.494 0 01-1.507-2.682 1.946 1.946 0 01.23-1.529c-.042-.013-.077.005-.146-.015a12.477 12.477 0 00-1.5-.211l1.121.657a2.761 2.761 0 00.532 2.281l-.66 1.564c-.1.2-.367.146-.551.127l-1.5-.211c-.047-.649.07-1.282.061-1.944a2.435 2.435 0 011.356 1.033v-.085L15.8 58.071a1.211 1.211 0 01.237-1.318.994.994 0 01-.477-.092c-.168.178-1.752 2.322-1.752 2.322-.132.108-.353.061-.509.042l-1.548-.235.083-1.944a2.234 2.234 0 011.315 1.015c-.151-1.056.019-2.228-.061-3.339a1.906 1.906 0 00-.467-.846l-2.604-1.836v-.616c.376.24.739.753 1.211.507a.549.549 0 00.146-.567l-.085-.151-1.248-.864c-.084-.375.091-.854-.151-1.166.674.349 1.332.743 1.992 1.124M8.83 49.28a.555.555 0 00-.145.489.92.92 0 00.381.484l1.951 1.332v-.211c-.524-.418-1.069-.766-1.592-1.183a.66.66 0 01-.254-.509.71.71 0 01.362-.573.956.956 0 00-.7.169M9 52.027a2.561 2.561 0 00.424.592l.193-.169c-.136-.267-.424-.249-.616-.423m-.339.277l.4.592c.09-.023.151-.113.231-.169-.132-.249-.414-.3-.635-.423m-.3.272l.4.592.212-.211c-.146-.225-.405-.272-.616-.381m1.463.128c-.5.379-.993.807-1.483 1.206.316.5.679.987 1.018 1.479a.889.889 0 00.508.38c.961.189 1.973.311 2.925.465-.066-.835.254-1.844-.49-2.409l-2.1.484c-.09.033-.18.117-.254.108a1.95 1.95 0 00.061-1.375zm-1.8.126a4 4 0 00.447.591l.189-.169c-.133-.244-.415-.306-.636-.422m-.273.277l.382.568a.444.444 0 00.231-.189 1.153 1.153 0 00-.613-.379m3.772 3.72A1.791 1.791 0 0010.8 57c.231.048.475.075.72.1zm-.72.61a5.435 5.435 0 00.72.065.873.873 0 00-.024-.277 1.354 1.354 0 00-.7.211m.677.192a1.344 1.344 0 00-.7.211l.7.1zm0 .424a1.331 1.331 0 00-.72.186 2.96 2.96 0 00.72.086zm-.023.4a1.053 1.053 0 00-.7.192 5.194 5.194 0 00.7.086zm3.391 1.123a6.116 6.116 0 00.72.084.9.9 0 00-.019-.277 1.643 1.643 0 00-.7.193m.7.211a1.4 1.4 0 00-.72.211 3.089 3.089 0 00.72.084zm-.744.61a2.476 2.476 0 00.72.084.767.767 0 00-.019-.272c-.292-.071-.467.127-.7.188m.678.212a1.572 1.572 0 00-.72.21l.744.086zm0 .4a1.3 1.3 0 00-.72.211l.72.084zm2.966 1.732c-.16.193-.126.531-.188.694.137-.182.311-.357.443-.549a1 1 0 00-.254-.145m.339.211a1.465 1.465 0 00-.168.719c.155-.154.244-.334.405-.487.056-.124-.156-.16-.237-.231m.363.231c-.193.187-.16.47-.193.718l.447-.548a1.817 1.817 0 00-.254-.169m.339.235c-.193.187-.16.464-.193.719l.448-.574a1.325 1.325 0 00-.255-.144m.34.211a1.24 1.24 0 00-.194.718 6.9 6.9 0 00.425-.573 1.2 1.2 0 00-.231-.145M12.24 50.894a.241.241 0 10-.242-.24.24.24 0 00.242.24" transform="translate(9.197 226.287)"/><path id="Rectangle_922" data-name="Rectangle 922" transform="translate(15.439 303.703)" d="M0 0h36.62v4.006H0z"/></g></svg>