<svg version="1.1" id="Layer_1" xmlns="http://www.w3.org/2000/svg" x="0" y="0" width="286" height="72" viewBox="0 0 286 72" xml:space="preserve"><g id="Group_420"><path id="Path_1221" d="M51 36.5C58.2 15 72.3 0 84.7 0c12.3 0 15 14.9 7.1 35.5C83.6 56.9 69.4 72 58.2 72s-14-14.9-7.2-35.5m8.5 33.8c8.6 0 19.3-13.2 26.8-33 8-21.2 6.5-35.5-2.9-35.5-9.3 0-20.2 13.2-26.9 33-7.3 21.2-5.9 35.5 3 35.5"/><path id="Path_1222" d="M105.5 64.6l-.9-14.3h1.5l.7 3.5c2 10.3 6.6 16.6 14.4 16.6 7.7 0 11-6.3 11-12.9 0-5.6-2.4-11-6.5-14.8L113 31.1c-4.8-4.5-7.2-9.9-7.2-15.7C105.8 6.7 111.2 0 120 0c5.3 0 10.2 2.6 14.4 6.2l1 14h-1.5l-.7-2.9c-2.1-10.5-6.7-15.7-13.6-15.7-7.2 0-10.1 6-10.1 11.9 0 4.9 2.2 9.6 6.3 13.4l12.5 11.2c5 4.3 7.8 10.6 8 17.2 0 9.4-6 16.6-15.5 16.6-6.2.1-11.3-3.1-15.3-7.3"/><path id="Path_1223" d="M152.5 69.4l5.2-.5 2.1-1V3.5l-11.3-.9-5.7 16.3h-1.3l2.7-18h1l2.8.5h28.5l2.8-.5h1l2.7 18h-1.3l-5.8-16.3-11.2.9V68l2 1 5.3.5v1.2h-19.3l-.2-1.3z"/><path id="Path_1224" d="M187.1 69.4l4.3-.5 1.7-1V4l-1.7-1-4.3-.5V1.4H220V2l2.7 15.9h-1.4l-5.8-14.6h-17.6v30.8h8.8l7.8-1.2h1.2v4h-1.2l-7.8-1.2h-8.8v32.7H216l5.8-14.9h1.4L220.5 70v.6h-33.4v-1.2z"/><path id="Path_1225" d="M227.7 69.4l4.3-.5 1.7-1V4L232 3l-4.3-.5V1.4h18v1.1l-5.3.5-2 1v64.6h18.2l5.9-16.5h1.3l-2.7 18v.4h-33.5l.1-1.1z"/><path id="Path_1226" d="M267.1 69.4l5.1-.5 2-1V4l-2-1-5.1-.5V1.4H286v1.1l-5.2.5-1.9 1v64l1.9 1 5.2.5v1.2h-18.9v-1.3z"/><path id="Path_1227" d="M0 36C0 14.9 9.1 0 23.1 0 28.7.1 34 2.5 37.8 6.5l.9 13.8H37l-.7-3.6c-2-9.2-7-15.2-14.1-15.2-10.1.1-17.5 12.8-17.5 33.7 0 19.8 7 34.6 17.4 34.6 5.7 0 9.3-4.3 11.9-11.1V39.5l-3-1.1-7.6-.4v-1.1H42v1l-3.7 1.2v31.5h-1.2L35.3 60c-3.1 7-7.1 12-13.9 12C9.4 72 0 57.3 0 36"/></g></svg>