<svg xmlns="http://www.w3.org/2000/svg" width="248.791" height="44.756" viewBox="0 0 248.791 44.756"><defs><clipPath id="clip-path"><path id="Rectangle_921" data-name="Rectangle 921" fill="none" d="M0 0h248.791v44.756H0z"/></clipPath></defs><g id="Group_2416" data-name="Group 2416" transform="translate(1 -40)"><g id="Group_1240" data-name="Group 1240" transform="translate(-1 40)" clip-path="url(#clip-path)"><path id="Path_1763" data-name="Path 1763" d="M29.9 5.409a1.565 1.565 0 00.876.233.792.792 0 00.894-.814c0-.779-1.821-.876-1.821-1.918A1.117 1.117 0 0131.1 1.875a2.367 2.367 0 01.779.13l-.062.359a1.627 1.627 0 00-.723-.148c-.41 0-.859.171-.859.683 0 .8 1.821.8 1.821 1.963a1.165 1.165 0 01-1.3 1.121 2.273 2.273 0 01-.9-.171z" transform="translate(-7.222 -.454)"/><path id="Path_1764" data-name="Path 1764" d="M36.162 3.741a1.655 1.655 0 00-.62-.148A1.08 1.08 0 0034.449 4.8 1.1 1.1 0 0035.5 6.017a1.867 1.867 0 00.655-.13l.034.335a2.144 2.144 0 01-.746.1A1.376 1.376 0 0134.056 4.8a1.407 1.407 0 011.434-1.52 2.172 2.172 0 01.7.114z" transform="translate(-8.241 -.795)"/><path id="Path_1765" data-name="Path 1765" d="M38.258 1.574h.359v1.855h.011a.985.985 0 01.905-.558c.779 0 .99.518.99 1.236v1.735h-.359v-1.73c0-.5-.1-.933-.689-.933-.637 0-.859.6-.859 1.11v1.553h-.359z" transform="translate(-9.258 -.381)"/><path id="Path_1766" data-name="Path 1766" d="M45.866 6.278h-.432l-.791-2.51h-.011l-.791 2.51h-.433l-.933-2.9h.393l.763 2.51h.011l.809-2.51h.432l.769 2.51h.011l.8-2.51h.359z" transform="translate(-10.278 -.817)"/><path id="Path_1767" data-name="Path 1767" d="M51.316 6.165a2.365 2.365 0 01-.842.159c-.962 0-1.32-.648-1.32-1.519 0-.888.49-1.519 1.223-1.519.819 0 1.155.66 1.155 1.439v.182h-1.986a.98.98 0 00.956 1.11 1.862 1.862 0 00.814-.216zM51.139 4.6c0-.506-.2-1.007-.74-1.007a.949.949 0 00-.853 1.007z" transform="translate(-11.894 -.795)"/><path id="Path_1768" data-name="Path 1768" d="M54.135 2.2h-.359v-.476h.359zm-.359.774h.359v2.9h-.359z" transform="translate(-13.013 -.417)"/><path id="Path_1769" data-name="Path 1769" d="M55.674 5.976l1.747-2.293h-1.679v-.307h2.094v.308L56.09 5.971h1.747v.307h-2.163z" transform="translate(-13.472 -.817)"/><path id="Path_1770" data-name="Path 1770" d="M61.821 6.165a2.365 2.365 0 01-.842.159c-.962 0-1.32-.648-1.32-1.519 0-.888.49-1.519 1.223-1.519.819 0 1.155.66 1.155 1.439v.182h-1.986a.98.98 0 00.956 1.11 1.862 1.862 0 00.814-.216zM61.644 4.6c0-.506-.2-1.007-.74-1.007a.949.949 0 00-.853 1.007z" transform="translate(-14.436 -.795)"/><path id="Path_1771" data-name="Path 1771" d="M64.274 4a5.222 5.222 0 00-.023-.649h.359v.558h.011a.86.86 0 01.745-.626 1.039 1.039 0 01.25.034V3.7a.938.938 0 00-.262-.034c-.569 0-.722.637-.722 1.161v1.43h-.359z" transform="translate(-15.548 -.795)"/><path id="Path_1772" data-name="Path 1772" d="M67.724 2.2h-.359v-.476h.359zm-.359.774h.359v2.9h-.359z" transform="translate(-16.301 -.417)"/><path id="Path_1773" data-name="Path 1773" d="M69.312 5.835a1.7 1.7 0 00.757.182c.341 0 .643-.187.643-.518 0-.688-1.395-.58-1.395-1.423 0-.575.467-.791.945-.791a2.28 2.28 0 01.717.131l-.034.313a1.691 1.691 0 00-.644-.137c-.37 0-.626.114-.626.484 0 .541 1.429.473 1.429 1.423 0 .615-.575.825-1.013.825a2.188 2.188 0 01-.813-.136z" transform="translate(-16.764 -.795)"/><path id="Path_1774" data-name="Path 1774" d="M74.94 3.741a1.655 1.655 0 00-.62-.148A1.08 1.08 0 0073.227 4.8a1.1 1.1 0 001.053 1.217 1.867 1.867 0 00.655-.13l.034.335a2.144 2.144 0 01-.746.1A1.376 1.376 0 0172.834 4.8a1.407 1.407 0 011.434-1.52 2.172 2.172 0 01.7.114z" transform="translate(-17.625 -.795)"/><path id="Path_1775" data-name="Path 1775" d="M77.037 1.574h.363v1.855h.011a.984.984 0 01.905-.558c.779 0 .99.518.99 1.236v1.735h-.359v-1.73c0-.5-.1-.933-.689-.933-.637 0-.859.6-.859 1.11v1.553h-.359z" transform="translate(-18.642 -.381)"/><path id="Path_1776" data-name="Path 1776" d="M83.672 6.165a2.365 2.365 0 01-.842.159c-.962 0-1.32-.648-1.32-1.519 0-.888.49-1.519 1.223-1.519.819 0 1.155.66 1.155 1.439v.182H81.9a.98.98 0 00.956 1.11 1.862 1.862 0 00.814-.216zM83.5 4.6c0-.506-.2-1.007-.74-1.007A.949.949 0 0081.9 4.6z" transform="translate(-19.724 -.795)"/><path id="Path_1777" data-name="Path 1777" d="M88.63 1.964h1.947v.342h-1.554v1.417H90.5v.342h-1.477V5.6h1.622v.341H88.63z" transform="translate(-21.447 -.476)"/><path id="Path_1778" data-name="Path 1778" d="M93.274 2.2h-.359v-.476h.359zm-.359.774h.359v2.9h-.359z" transform="translate(-22.484 -.417)"/><path id="Path_1779" data-name="Path 1779" d="M97.41 5.842h-.359v-.46h-.011a.931.931 0 01-.905.528c-.8 0-1.2-.659-1.2-1.519 0-.882.342-1.52 1.2-1.52a.98.98 0 01.905.558h.011V1.574h.359zM96.192 5.6c.637 0 .859-.683.859-1.212s-.221-1.212-.859-1.212c-.683 0-.86.649-.86 1.212s.177 1.212.86 1.212" transform="translate(-22.974 -.381)"/><path id="Path_1780" data-name="Path 1780" d="M102.167 6.017c0 .808-.365 1.468-1.36 1.468a3 3 0 01-.876-.154l.028-.359a1.968 1.968 0 00.854.205c.922 0 1-.672 1-1.492h-.013a.9.9 0 01-.882.569c-.928 0-1.224-.808-1.224-1.451 0-.882.342-1.52 1.2-1.52a.959.959 0 01.905.4h.011v-.33h.359zm-1.241-.068c.649 0 .882-.615.882-1.144 0-.7-.2-1.212-.86-1.212-.683 0-.86.649-.86 1.212s.228 1.144.837 1.144" transform="translate(-24.125 -.795)"/><path id="Path_1781" data-name="Path 1781" d="M106.558 6.165a2.365 2.365 0 01-.842.159c-.962 0-1.32-.648-1.32-1.519 0-.888.49-1.519 1.223-1.519.819 0 1.155.66 1.155 1.439v.182h-1.986a.98.98 0 00.956 1.11 1.865 1.865 0 00.814-.216zm-.177-1.565c0-.506-.2-1.007-.74-1.007a.949.949 0 00-.854 1.007z" transform="translate(-25.262 -.795)"/><path id="Path_1782" data-name="Path 1782" d="M109.011 4.037c0-.222 0-.45-.023-.683h.347v.518h.011a.921.921 0 01.939-.586c.716 0 .99.478.99 1.115v1.856h-.359V4.493c0-.547-.194-.9-.689-.9-.654 0-.859.575-.859 1.059v1.6h-.359z" transform="translate(-26.373 -.795)"/><path id="Path_1783" data-name="Path 1783" d="M114.837 3.285a1.355 1.355 0 011.355 1.52 1.363 1.363 0 11-2.709 0 1.355 1.355 0 011.355-1.52m0 2.732c.626 0 .962-.54.962-1.212s-.336-1.212-.962-1.212-.962.54-.962 1.212.336 1.212.962 1.212" transform="translate(-27.461 -.795)"/><path id="Path_1784" data-name="Path 1784" d="M118.229 5.835a1.7 1.7 0 00.757.182c.341 0 .643-.187.643-.518 0-.688-1.395-.58-1.395-1.423 0-.575.467-.791.945-.791a2.28 2.28 0 01.717.131l-.034.313a1.691 1.691 0 00-.644-.137c-.37 0-.626.114-.626.484 0 .541 1.429.473 1.429 1.423 0 .615-.575.825-1.013.825a2.188 2.188 0 01-.813-.136z" transform="translate(-28.601 -.795)"/><path id="Path_1785" data-name="Path 1785" d="M121.733 5.835a1.7 1.7 0 00.757.182c.341 0 .643-.187.643-.518 0-.688-1.395-.58-1.395-1.423 0-.575.467-.791.945-.791a2.28 2.28 0 01.717.131l-.034.313a1.692 1.692 0 00-.644-.137c-.37 0-.626.114-.626.484 0 .541 1.429.473 1.429 1.423 0 .615-.575.825-1.013.825a2.188 2.188 0 01-.813-.136z" transform="translate(-29.449 -.795)"/><path id="Path_1786" data-name="Path 1786" d="M127.418 6.165a2.365 2.365 0 01-.842.159c-.962 0-1.32-.648-1.32-1.519 0-.888.49-1.519 1.223-1.519.819 0 1.155.66 1.155 1.439v.182h-1.986a.98.98 0 00.956 1.11 1.865 1.865 0 00.814-.216zm-.177-1.565c0-.506-.2-1.007-.74-1.007a.949.949 0 00-.854 1.007z" transform="translate(-30.309 -.795)"/><path id="Path_1787" data-name="Path 1787" d="M129.871 4.037c0-.222 0-.45-.023-.683h.347v.518h.011a.921.921 0 01.939-.586c.716 0 .99.478.99 1.115v1.856h-.359V4.493c0-.547-.194-.9-.689-.9-.654 0-.859.575-.859 1.059v1.6h-.359z" transform="translate(-31.421 -.795)"/><path id="Path_1788" data-name="Path 1788" d="M134.332 5.835a1.7 1.7 0 00.757.182c.341 0 .643-.187.643-.518 0-.688-1.395-.58-1.395-1.423 0-.575.467-.791.945-.791a2.28 2.28 0 01.717.131l-.034.313a1.691 1.691 0 00-.644-.137c-.37 0-.626.114-.626.484 0 .541 1.429.473 1.429 1.423 0 .615-.575.825-1.013.825a2.188 2.188 0 01-.813-.136z" transform="translate(-32.498 -.795)"/><path id="Path_1789" data-name="Path 1789" d="M139.96 3.741a1.655 1.655 0 00-.62-.148 1.08 1.08 0 00-1.093 1.207 1.1 1.1 0 001.053 1.217 1.867 1.867 0 00.655-.13l.034.335a2.144 2.144 0 01-.746.1 1.376 1.376 0 01-1.389-1.522 1.407 1.407 0 011.434-1.52 2.172 2.172 0 01.7.114z" transform="translate(-33.358 -.795)"/><path id="Path_1790" data-name="Path 1790" d="M142.057 1.574h.359v1.855h.011a.984.984 0 01.905-.558c.779 0 .989.518.989 1.236v1.735h-.358v-1.73c0-.5-.1-.933-.689-.933-.637 0-.859.6-.859 1.11v1.553h-.359z" transform="translate(-34.375 -.381)"/><path id="Path_1791" data-name="Path 1791" d="M148.411 5.789h-.011a1.021 1.021 0 01-.922.535c-.825 0-.955-.557-.955-.819 0-.973 1.035-1.019 1.786-1.019h.069v-.148c0-.495-.177-.745-.66-.745a1.539 1.539 0 00-.854.239v-.348a2.281 2.281 0 01.854-.2c.716 0 1.019.324 1.019 1.082v1.28a4.177 4.177 0 00.028.609h-.352zm-.034-1h-.1c-.62 0-1.36.063-1.36.7 0 .381.274.524.6.524.843 0 .86-.734.86-1.048z" transform="translate(-35.456 -.795)"/><path id="Path_1792" data-name="Path 1792" d="M151.287 3.225h-.587v-.307h.586v-.211c0-.609.023-1.223.769-1.223a.821.821 0 01.335.057l-.022.313a.632.632 0 00-.285-.063c-.49 0-.438.529-.438.876v.251h.654v.307h-.654V5.82h-.359z" transform="translate(-36.467 -.359)"/><path id="Path_1793" data-name="Path 1793" d="M155.38 3.419h-.66V5.3c0 .262.1.478.387.478a.835.835 0 00.329-.068l.023.3a1.284 1.284 0 01-.438.08c-.637 0-.659-.437-.659-.967v-1.7h-.569v-.311h.569v-.7l.359-.125v.825h.66z" transform="translate(-37.215 -.554)"/><path id="Path_1794" data-name="Path 1794" d="M32.67 12.737a2.068 2.068 0 00-.888-.171 1.561 1.561 0 00-1.611 1.713 1.543 1.543 0 001.611 1.712 1.955 1.955 0 00.888-.171l.023.342a2.152 2.152 0 01-.91.171 1.893 1.893 0 01-2-2.054 1.916 1.916 0 012-2.054 2.561 2.561 0 01.91.148z" transform="translate(-7.206 -2.959)"/><path id="Path_1795" data-name="Path 1795" d="M36.409 13.635a1.355 1.355 0 011.355 1.52 1.364 1.364 0 11-2.709 0 1.355 1.355 0 011.355-1.52m0 2.732c.626 0 .962-.54.962-1.212s-.336-1.212-.962-1.212-.962.54-.962 1.212.336 1.212.962 1.212" transform="translate(-8.482 -3.3)"/><path id="Path_1796" data-name="Path 1796" d="M40.1 14.387c0-.222 0-.45-.023-.683h.347v.518h.011a.921.921 0 01.939-.586c.716 0 .99.478.99 1.115v1.856H42v-1.764c0-.547-.193-.9-.689-.9-.654 0-.859.574-.859 1.058v1.6H40.1z" transform="translate(-9.697 -3.3)"/><path id="Path_1797" data-name="Path 1797" d="M45 13.575h-.586v-.307H45v-.211c0-.609.023-1.223.768-1.223a.82.82 0 01.336.057l-.023.313a.629.629 0 00-.284-.063c-.49 0-.438.529-.438.876v.251h.654v.307h-.654v2.595H45z" transform="translate(-10.747 -2.864)"/><path id="Path_1798" data-name="Path 1798" d="M49.823 16.179a2.366 2.366 0 01-.842.16c-.962 0-1.32-.649-1.32-1.52 0-.888.49-1.519 1.223-1.519.819 0 1.155.66 1.155 1.439v.182h-1.986a.981.981 0 00.956 1.11 1.862 1.862 0 00.814-.216zm-.177-1.565c0-.506-.2-1.007-.739-1.007a.949.949 0 00-.854 1.007zm-.6-2.367h.45l-.717.819h-.259z" transform="translate(-11.533 -2.964)"/><path id="Path_1799" data-name="Path 1799" d="M54.527 16.192h-.358v-.46h-.011a.932.932 0 01-.905.529c-.8 0-1.2-.66-1.2-1.52 0-.882.342-1.52 1.2-1.52a.98.98 0 01.905.558h.011v-1.855h.358zm-1.217-.239c.637 0 .86-.683.86-1.212s-.222-1.212-.86-1.212c-.683 0-.86.649-.86 1.212s.177 1.212.86 1.212" transform="translate(-12.597 -2.886)"/><path id="Path_1800" data-name="Path 1800" d="M58.917 16.179a2.366 2.366 0 01-.842.16c-.962 0-1.32-.649-1.32-1.52 0-.888.49-1.519 1.223-1.519.819 0 1.155.66 1.155 1.439v.182h-1.986a.981.981 0 00.956 1.11 1.865 1.865 0 00.814-.216zm-.177-1.565c0-.506-.2-1.007-.74-1.007a.949.949 0 00-.854 1.007zm-.6-2.367h.45l-.717.819h-.262z" transform="translate(-13.733 -2.964)"/><path id="Path_1801" data-name="Path 1801" d="M61.37 14.353a5.208 5.208 0 00-.023-.648h.359v.557h.011a.86.86 0 01.745-.626 1.037 1.037 0 01.25.035v.375a.938.938 0 00-.262-.034c-.569 0-.722.637-.722 1.161v1.434h-.358z" transform="translate(-14.845 -3.3)"/><path id="Path_1802" data-name="Path 1802" d="M66.058 16.14h-.011a1.022 1.022 0 01-.922.536c-.825 0-.956-.558-.956-.82 0-.973 1.035-1.019 1.787-1.019h.068v-.148c0-.495-.176-.745-.66-.745a1.542 1.542 0 00-.854.239v-.347a2.285 2.285 0 01.854-.2c.717 0 1.019.324 1.019 1.082V16a4.067 4.067 0 00.029.609h-.353zm-.034-1h-.1c-.62 0-1.36.063-1.36.7 0 .381.273.524.6.524.842 0 .859-.734.859-1.048z" transform="translate(-15.528 -3.3)"/><path id="Path_1803" data-name="Path 1803" d="M69.943 13.769h-.66v1.878c0 .262.1.478.387.478a.836.836 0 00.33-.068l.023.3a1.3 1.3 0 01-.438.08c-.637 0-.66-.438-.66-.968v-1.7h-.569v-.307h.569v-.7l.359-.125v.825h.66z" transform="translate(-16.541 -3.058)"/><path id="Path_1804" data-name="Path 1804" d="M72.241 12.552h-.359v-.478h.359zm-.359.774h.359v2.9h-.359z" transform="translate(-17.394 -2.922)"/><path id="Path_1805" data-name="Path 1805" d="M75.195 13.635a1.355 1.355 0 011.355 1.52 1.364 1.364 0 11-2.709 0 1.355 1.355 0 011.355-1.52m0 2.732c.626 0 .962-.54.962-1.212s-.336-1.212-.962-1.212-.962.54-.962 1.212.336 1.212.962 1.212" transform="translate(-17.868 -3.3)"/><path id="Path_1806" data-name="Path 1806" d="M78.884 14.387c0-.222 0-.45-.023-.683h.347v.518h.011a.921.921 0 01.939-.586c.716 0 .99.478.99 1.115v1.856h-.358v-1.764c0-.547-.194-.9-.689-.9-.654 0-.859.574-.859 1.058v1.6h-.359z" transform="translate(-19.083 -3.3)"/><path id="Path_1807" data-name="Path 1807" d="M85.941 16.185a1.7 1.7 0 00.757.182c.341 0 .643-.187.643-.518 0-.688-1.395-.58-1.395-1.423 0-.575.467-.791.945-.791a2.28 2.28 0 01.717.131l-.034.312a1.7 1.7 0 00-.644-.136c-.37 0-.626.114-.626.484 0 .541 1.429.472 1.429 1.423 0 .615-.575.825-1.013.825a2.173 2.173 0 01-.813-.137z" transform="translate(-20.788 -3.3)"/><path id="Path_1808" data-name="Path 1808" d="M92.013 15.945c0 .222 0 .45.023.683h-.347v-.518h-.011a.921.921 0 01-.939.586c-.716 0-.99-.478-.99-1.115v-1.855h.359v1.764c0 .547.193.9.689.9.654 0 .859-.575.859-1.058v-1.6h.359z" transform="translate(-21.717 -3.322)"/><path id="Path_1809" data-name="Path 1809" d="M94.865 12.552h-.359v-.478h.359zm-.359.774h.359v2.9h-.359z" transform="translate(-22.869 -2.922)"/><path id="Path_1810" data-name="Path 1810" d="M96.453 16.185a1.7 1.7 0 00.757.182c.341 0 .643-.187.643-.518 0-.688-1.395-.58-1.395-1.423 0-.575.467-.791.945-.791a2.28 2.28 0 01.717.131l-.034.312a1.7 1.7 0 00-.644-.136c-.37 0-.626.114-.626.484 0 .541 1.429.472 1.429 1.423 0 .615-.575.825-1.013.825a2.173 2.173 0 01-.813-.137z" transform="translate(-23.332 -3.3)"/><path id="Path_1811" data-name="Path 1811" d="M99.957 16.185a1.7 1.7 0 00.757.182c.341 0 .643-.187.643-.518 0-.688-1.395-.58-1.395-1.423 0-.575.467-.791.945-.791a2.28 2.28 0 01.717.131l-.034.312a1.7 1.7 0 00-.644-.136c-.37 0-.626.114-.626.484 0 .541 1.429.472 1.429 1.423 0 .615-.575.825-1.013.825a2.173 2.173 0 01-.813-.137z" transform="translate(-24.18 -3.3)"/><path id="Path_1812" data-name="Path 1812" d="M105.643 16.515a2.366 2.366 0 01-.842.16c-.962 0-1.32-.649-1.32-1.52 0-.888.49-1.519 1.223-1.519.819 0 1.155.66 1.155 1.439v.182h-1.986a.98.98 0 00.956 1.11 1.865 1.865 0 00.814-.216zm-.177-1.565c0-.506-.2-1.007-.74-1.007a.949.949 0 00-.854 1.007z" transform="translate(-25.04 -3.3)"/><path id="Path_1813" data-name="Path 1813" d="M32.67 23.087a2.057 2.057 0 00-.888-.171 1.561 1.561 0 00-1.611 1.713 1.544 1.544 0 001.611 1.713 1.966 1.966 0 00.888-.171l.023.341a2.141 2.141 0 01-.91.171 1.893 1.893 0 01-2-2.054 1.917 1.917 0 012-2.054 2.545 2.545 0 01.91.149z" transform="translate(-7.206 -5.463)"/><path id="Path_1814" data-name="Path 1814" d="M36.409 23.985a1.355 1.355 0 011.355 1.52 1.363 1.363 0 11-2.709 0 1.355 1.355 0 011.355-1.52m0 2.732c.626 0 .962-.54.962-1.212s-.336-1.212-.962-1.212-.962.54-.962 1.212.336 1.212.962 1.212" transform="translate(-8.482 -5.804)"/><path id="Path_1815" data-name="Path 1815" d="M40.1 24.737c0-.222 0-.45-.023-.683h.347v.518h.011a.921.921 0 01.939-.586c.716 0 .99.478.99 1.115v1.856H42v-1.764c0-.547-.193-.9-.689-.9-.654 0-.859.575-.859 1.059v1.6H40.1z" transform="translate(-9.697 -5.805)"/><path id="Path_1816" data-name="Path 1816" d="M45 23.925h-.586v-.307H45v-.211c0-.609.023-1.223.768-1.223a.82.82 0 01.336.057l-.023.313a.629.629 0 00-.284-.063c-.49 0-.438.529-.438.876v.251h.654v.307h-.654v2.595H45z" transform="translate(-10.747 -5.368)"/><path id="Path_1817" data-name="Path 1817" d="M49.823 26.865a2.365 2.365 0 01-.842.159c-.962 0-1.32-.648-1.32-1.519 0-.888.49-1.519 1.223-1.519.819 0 1.155.66 1.155 1.439v.182h-1.986a.98.98 0 00.956 1.11 1.862 1.862 0 00.814-.216zm-.177-1.565c0-.506-.2-1.007-.74-1.007a.949.949 0 00-.854 1.007z" transform="translate(-11.533 -5.805)"/><path id="Path_1818" data-name="Path 1818" d="M54.527 26.542h-.358v-.46h-.011a.931.931 0 01-.905.528c-.8 0-1.2-.659-1.2-1.519 0-.882.342-1.52 1.2-1.52a.98.98 0 01.905.558h.011v-1.855h.358zm-1.218-.242c.637 0 .86-.683.86-1.212s-.222-1.212-.86-1.212c-.683 0-.86.649-.86 1.212s.177 1.212.86 1.212" transform="translate(-12.597 -5.39)"/><path id="Path_1819" data-name="Path 1819" d="M58.917 26.865a2.365 2.365 0 01-.842.159c-.962 0-1.32-.648-1.32-1.519 0-.888.49-1.519 1.223-1.519.819 0 1.155.66 1.155 1.439v.182h-1.986a.98.98 0 00.956 1.11 1.865 1.865 0 00.814-.216zM58.74 25.3c0-.506-.2-1.007-.74-1.007a.949.949 0 00-.854 1.007z" transform="translate(-13.733 -5.805)"/><path id="Path_1820" data-name="Path 1820" d="M61.37 24.7a5.221 5.221 0 00-.023-.649h.359v.558h.011a.86.86 0 01.745-.626 1.039 1.039 0 01.25.034v.383a.938.938 0 00-.262-.034c-.569 0-.722.637-.722 1.161v1.434h-.358z" transform="translate(-14.845 -5.805)"/><path id="Path_1821" data-name="Path 1821" d="M66.058 26.49h-.011a1.021 1.021 0 01-.922.535c-.825 0-.956-.557-.956-.819 0-.973 1.035-1.019 1.787-1.019h.068v-.148c0-.495-.176-.745-.66-.745a1.542 1.542 0 00-.854.239v-.347a2.285 2.285 0 01.854-.2c.717 0 1.019.324 1.019 1.082v1.28a4.067 4.067 0 00.029.609h-.353zm-.034-1h-.1c-.62 0-1.36.063-1.36.7 0 .381.273.524.6.524.842 0 .859-.734.859-1.048z" transform="translate(-15.528 -5.805)"/><path id="Path_1822" data-name="Path 1822" d="M68.445 26.677l1.747-2.293h-1.679v-.308h2.094v.308l-1.747 2.288h1.747v.307h-2.162z" transform="translate(-16.562 -5.826)"/><path id="Path_1823" data-name="Path 1823" d="M73.074 22.9h-.359v-.478h.359zm-.359.774h.359v2.9h-.359z" transform="translate(-17.596 -5.427)"/><path id="Path_1824" data-name="Path 1824" d="M76.028 23.985a1.355 1.355 0 011.355 1.52 1.363 1.363 0 11-2.709 0 1.355 1.355 0 011.355-1.52m0 2.732c.626 0 .962-.54.962-1.212s-.336-1.212-.962-1.212-.962.54-.962 1.212.336 1.212.962 1.212" transform="translate(-18.07 -5.804)"/><path id="Path_1825" data-name="Path 1825" d="M79.717 24.737c0-.222 0-.45-.023-.683h.347v.518h.011a.921.921 0 01.939-.586c.716 0 .99.478.99 1.115v1.856h-.359v-1.764c0-.547-.193-.9-.689-.9-.654 0-.859.575-.859 1.059v1.6h-.359z" transform="translate(-19.284 -5.805)"/><path id="Path_1826" data-name="Path 1826" d="M86.358 26.865a2.365 2.365 0 01-.842.159c-.962 0-1.32-.648-1.32-1.519 0-.888.49-1.519 1.223-1.519.819 0 1.155.66 1.155 1.439v.182h-1.986a.98.98 0 00.956 1.11 1.862 1.862 0 00.814-.216zm-.177-1.565c0-.506-.2-1.007-.74-1.007a.949.949 0 00-.854 1.007z" transform="translate(-20.374 -5.805)"/><path id="Path_1827" data-name="Path 1827" d="M91.308 26.109a1.565 1.565 0 00.876.233.792.792 0 00.894-.814c0-.779-1.821-.876-1.821-1.918a1.117 1.117 0 011.258-1.035 2.367 2.367 0 01.779.13l-.062.359a1.627 1.627 0 00-.723-.148c-.41 0-.859.171-.859.683 0 .8 1.821.8 1.821 1.963a1.165 1.165 0 01-1.3 1.121 2.273 2.273 0 01-.9-.171z" transform="translate(-22.083 -5.463)"/><path id="Path_1828" data-name="Path 1828" d="M96.632 26.978h-.422l-.984-2.9h.393l.8 2.51h.011l.842-2.51h.376z" transform="translate(-23.043 -5.826)"/><path id="Path_1829" data-name="Path 1829" d="M100.027 22.9h-.359v-.478h.359zm-.359.774h.359v2.9h-.359z" transform="translate(-24.118 -5.427)"/><path id="Path_1830" data-name="Path 1830" d="M101.566 26.677l1.747-2.293h-1.679v-.308h2.094v.308l-1.747 2.288h1.747v.307h-2.163z" transform="translate(-24.577 -5.826)"/><path id="Path_1831" data-name="Path 1831" d="M105.483 26.677l1.747-2.293h-1.679v-.308h2.094v.308l-1.745 2.287h1.747v.307h-2.163z" transform="translate(-25.525 -5.826)"/><path id="Path_1832" data-name="Path 1832" d="M111.631 26.865a2.365 2.365 0 01-.842.159c-.962 0-1.32-.648-1.32-1.519 0-.888.49-1.519 1.223-1.519.819 0 1.155.66 1.155 1.439v.182h-1.986a.98.98 0 00.956 1.11 1.862 1.862 0 00.814-.216zm-.177-1.565c0-.506-.2-1.007-.74-1.007a.949.949 0 00-.854 1.007z" transform="translate(-26.489 -5.805)"/><path id="Path_1833" data-name="Path 1833" d="M114.083 24.7a5.222 5.222 0 00-.023-.649h.359v.558h.011a.86.86 0 01.745-.626 1.039 1.039 0 01.25.034v.383a.938.938 0 00-.262-.034c-.569 0-.722.637-.722 1.161v1.434h-.359z" transform="translate(-27.6 -5.805)"/><path id="Path_1834" data-name="Path 1834" d="M118.77 26.49h-.011a1.02 1.02 0 01-.921.535c-.825 0-.956-.557-.956-.819 0-.973 1.035-1.019 1.787-1.019h.067v-.148c0-.495-.176-.745-.66-.745a1.545 1.545 0 00-.854.239v-.347a2.285 2.285 0 01.854-.2c.717 0 1.019.324 1.019 1.082v1.28a3.965 3.965 0 00.03.609h-.354zm-.034-1h-.1c-.62 0-1.36.063-1.36.7 0 .381.273.524.6.524.842 0 .859-.734.859-1.048z" transform="translate(-28.283 -5.805)"/><path id="Path_1835" data-name="Path 1835" d="M32.67 33.436a2.057 2.057 0 00-.888-.171 1.561 1.561 0 00-1.611 1.713 1.544 1.544 0 001.611 1.713 1.966 1.966 0 00.888-.171l.023.341a2.141 2.141 0 01-.91.171 1.893 1.893 0 01-2-2.054 1.916 1.916 0 012-2.054 2.545 2.545 0 01.91.149z" transform="translate(-7.206 -7.967)"/><path id="Path_1836" data-name="Path 1836" d="M36.409 34.335a1.529 1.529 0 11-1.355 1.519 1.355 1.355 0 011.355-1.519m0 2.732c.626 0 .962-.54.962-1.213s-.336-1.211-.962-1.211-.962.541-.962 1.211.336 1.213.962 1.213" transform="translate(-8.482 -8.309)"/><path id="Path_1837" data-name="Path 1837" d="M40.1 35.087c0-.222 0-.45-.023-.683h.347v.518h.011a.921.921 0 01.939-.586c.716 0 .99.478.99 1.115v1.856H42v-1.764c0-.547-.193-.9-.689-.9-.654 0-.859.575-.859 1.059v1.6H40.1z" transform="translate(-9.697 -8.309)"/><path id="Path_1838" data-name="Path 1838" d="M45 34.276h-.586v-.308H45v-.211c0-.608.023-1.223.768-1.223a.833.833 0 01.336.057l-.023.313a.639.639 0 00-.284-.063c-.49 0-.438.53-.438.877v.25h.654v.308h-.654v2.595H45z" transform="translate(-10.747 -7.873)"/><path id="Path_1839" data-name="Path 1839" d="M49.823 37.215a2.382 2.382 0 01-.842.159c-.962 0-1.32-.648-1.32-1.519 0-.887.49-1.519 1.223-1.519.819 0 1.155.66 1.155 1.439v.182h-1.986a.98.98 0 00.956 1.11 1.862 1.862 0 00.814-.216zm-.177-1.565c0-.506-.2-1.007-.74-1.007a.949.949 0 00-.854 1.007z" transform="translate(-11.533 -8.309)"/><path id="Path_1840" data-name="Path 1840" d="M54.527 36.892h-.358v-.461h-.011a.931.931 0 01-.905.529c-.8 0-1.2-.659-1.2-1.52 0-.882.342-1.519 1.2-1.519a.979.979 0 01.905.559h.011v-1.855h.358zm-1.217-.239c.637 0 .86-.682.86-1.213s-.222-1.211-.86-1.211c-.683 0-.86.649-.86 1.211s.177 1.213.86 1.213" transform="translate(-12.597 -7.895)"/><path id="Path_1841" data-name="Path 1841" d="M58.917 37.215a2.382 2.382 0 01-.842.159c-.962 0-1.32-.648-1.32-1.519 0-.887.49-1.519 1.223-1.519.819 0 1.155.66 1.155 1.439v.182h-1.986a.98.98 0 00.956 1.11 1.865 1.865 0 00.814-.216zm-.177-1.565c0-.506-.2-1.007-.74-1.007a.949.949 0 00-.854 1.007z" transform="translate(-13.733 -8.309)"/><path id="Path_1842" data-name="Path 1842" d="M61.37 35.053a5.221 5.221 0 00-.023-.649h.359v.558h.011a.86.86 0 01.745-.626 1.039 1.039 0 01.25.034v.376a.911.911 0 00-.262-.034c-.569 0-.722.637-.722 1.161v1.434h-.358z" transform="translate(-14.845 -8.309)"/><path id="Path_1843" data-name="Path 1843" d="M66.058 36.839h-.011a1.02 1.02 0 01-.922.536c-.825 0-.956-.558-.956-.82 0-.973 1.035-1.018 1.787-1.018h.068v-.149c0-.494-.176-.745-.66-.745a1.548 1.548 0 00-.854.239v-.347a2.3 2.3 0 01.854-.2c.717 0 1.019.324 1.019 1.082V36.7a4.078 4.078 0 00.029.609h-.353zm-.034-.995h-.1c-.62 0-1.36.062-1.36.7 0 .381.273.523.6.523.842 0 .859-.734.859-1.047z" transform="translate(-15.528 -8.309)"/><path id="Path_1844" data-name="Path 1844" d="M68.445 37.026l1.747-2.293h-1.679v-.309h2.094v.309l-1.746 2.287h1.747v.307h-2.163z" transform="translate(-16.562 -8.331)"/><path id="Path_1845" data-name="Path 1845" d="M73.074 33.251h-.359v-.478h.359zm-.359.774h.359v2.9h-.359z" transform="translate(-17.596 -7.931)"/><path id="Path_1846" data-name="Path 1846" d="M77.231 36.644c0 .222 0 .45.023.683h-.347v-.517H76.9a.922.922 0 01-.939.585c-.716 0-.99-.478-.99-1.115v-1.855h.359v1.765c0 .547.193.9.689.9.654 0 .859-.575.859-1.059v-1.6h.359z" transform="translate(-18.14 -8.331)"/><path id="Path_1847" data-name="Path 1847" d="M79.717 35.087c0-.222 0-.45-.023-.683h.347v.518h.011a.921.921 0 01.939-.586c.716 0 .99.478.99 1.115v1.856h-.359v-1.764c0-.547-.193-.9-.689-.9-.654 0-.859.575-.859 1.059v1.6h-.359z" transform="translate(-19.284 -8.309)"/><path id="Path_1848" data-name="Path 1848" d="M86.774 36.885a1.7 1.7 0 00.757.182c.341 0 .643-.188.643-.518 0-.689-1.395-.581-1.395-1.423 0-.575.467-.791.945-.791a2.28 2.28 0 01.717.131l-.034.313a1.677 1.677 0 00-.644-.137c-.37 0-.626.114-.626.484 0 .541 1.429.473 1.429 1.423 0 .615-.575.825-1.013.825a2.188 2.188 0 01-.813-.136z" transform="translate(-20.99 -8.309)"/><path id="Path_1849" data-name="Path 1849" d="M91.461 37.328h-.421l-.984-2.9h.393l.8 2.509h.011l.842-2.509h.376z" transform="translate(-21.792 -8.331)"/><path id="Path_1850" data-name="Path 1850" d="M94.857 33.251H94.5v-.478h.359zm-.359.774h.359v2.9H94.5z" transform="translate(-22.867 -7.931)"/><path id="Path_1851" data-name="Path 1851" d="M96.4 37.026l1.747-2.293h-1.682v-.309h2.094v.309l-1.747 2.287h1.747v.307H96.4z" transform="translate(-23.326 -8.331)"/><path id="Path_1852" data-name="Path 1852" d="M100.659 35.053a5.221 5.221 0 00-.023-.649h.359v.558h.011a.86.86 0 01.745-.626 1.039 1.039 0 01.25.034v.376a.911.911 0 00-.262-.034c-.569 0-.722.637-.722 1.161v1.434h-.359z" transform="translate(-24.352 -8.309)"/><path id="Path_1853" data-name="Path 1853" d="M105.347 36.839h-.011a1.02 1.02 0 01-.922.536c-.825 0-.956-.558-.956-.82 0-.973 1.035-1.018 1.787-1.018h.068v-.149c0-.494-.176-.745-.66-.745a1.548 1.548 0 00-.854.239v-.347a2.3 2.3 0 01.854-.2c.717 0 1.019.324 1.019 1.082V36.7a4.078 4.078 0 00.029.609h-.353zm-.034-.995h-.1c-.62 0-1.36.062-1.36.7 0 .381.273.523.6.523.842 0 .859-.734.859-1.047z" transform="translate(-25.035 -8.309)"/><path id="Path_1854" data-name="Path 1854" d="M29.838 57.159a1.565 1.565 0 00.876.233.792.792 0 00.894-.814c0-.78-1.821-.876-1.821-1.918a1.117 1.117 0 011.258-1.035 2.367 2.367 0 01.779.13l-.062.359a1.617 1.617 0 00-.723-.148c-.41 0-.859.171-.859.683 0 .8 1.821.8 1.821 1.963a1.165 1.165 0 01-1.3 1.121 2.279 2.279 0 01-.9-.171z" transform="translate(-7.208 -12.977)"/><path id="Path_1855" data-name="Path 1855" d="M37.133 58.028H36.7l-.791-2.51H35.9l-.791 2.51h-.433l-.933-2.9h.392l.763 2.509h.011l.808-2.509h.432l.769 2.509h.011l.8-2.509h.358z" transform="translate(-8.165 -13.34)"/><path id="Path_1856" data-name="Path 1856" d="M41.063 53.952H40.7v-.478h.359zm-.358.774h.359v2.9H40.7z" transform="translate(-9.85 -12.94)"/><path id="Path_1857" data-name="Path 1857" d="M42.651 57.585a1.7 1.7 0 00.757.182c.341 0 .643-.187.643-.517 0-.689-1.395-.581-1.395-1.423 0-.575.467-.791.946-.791a2.28 2.28 0 01.716.131l-.034.313a1.691 1.691 0 00-.644-.137c-.37 0-.626.114-.626.484 0 .54 1.43.472 1.43 1.423 0 .614-.576.825-1.014.825a2.181 2.181 0 01-.813-.136z" transform="translate(-10.313 -13.318)"/><path id="Path_1858" data-name="Path 1858" d="M46.156 57.585a1.7 1.7 0 00.757.182c.341 0 .643-.187.643-.517 0-.689-1.395-.581-1.395-1.423 0-.575.467-.791.945-.791a2.28 2.28 0 01.717.131l-.034.313a1.691 1.691 0 00-.644-.137c-.37 0-.626.114-.626.484 0 .54 1.429.472 1.429 1.423 0 .614-.575.825-1.013.825a2.188 2.188 0 01-.813-.136z" transform="translate(-11.161 -13.318)"/><path id="Path_1859" data-name="Path 1859" d="M55.361 54.136a2.057 2.057 0 00-.888-.171 1.561 1.561 0 00-1.611 1.713 1.544 1.544 0 001.611 1.713 1.956 1.956 0 00.888-.171l.023.343a2.163 2.163 0 01-.91.17 1.893 1.893 0 01-2-2.054 1.917 1.917 0 012-2.054 2.562 2.562 0 01.91.149z" transform="translate(-12.697 -12.976)"/><path id="Path_1860" data-name="Path 1860" d="M59.287 55.035a1.529 1.529 0 11-1.355 1.52 1.355 1.355 0 011.355-1.52m0 2.732c.626 0 .962-.54.962-1.212s-.336-1.212-.962-1.212-.962.54-.962 1.212.336 1.212.962 1.212" transform="translate(-14.018 -13.318)"/><path id="Path_1861" data-name="Path 1861" d="M62.976 55.787c0-.222 0-.45-.023-.682h.347v.517h.011a.922.922 0 01.939-.586c.716 0 .99.478.99 1.115v1.856h-.359v-1.764c0-.547-.194-.9-.689-.9-.654 0-.859.575-.859 1.059v1.6h-.359z" transform="translate(-15.233 -13.318)"/><path id="Path_1862" data-name="Path 1862" d="M67.876 54.975h-.586v-.306h.586v-.211c0-.609.023-1.223.768-1.223a.839.839 0 01.337.057l-.023.313a.639.639 0 00-.284-.063c-.49 0-.438.53-.438.877v.251h.654v.306h-.654v2.6h-.359z" transform="translate(-16.283 -12.882)"/><path id="Path_1863" data-name="Path 1863" d="M72.7 57.915a2.365 2.365 0 01-.842.159c-.962 0-1.32-.648-1.32-1.518 0-.888.49-1.52 1.223-1.52.819 0 1.155.66 1.155 1.439v.182h-1.984a.98.98 0 00.956 1.11 1.865 1.865 0 00.814-.216zm-.177-1.565c0-.506-.2-1.007-.74-1.007a.949.949 0 00-.854 1.007z" transform="translate(-17.069 -13.318)"/><path id="Path_1864" data-name="Path 1864" d="M77.406 57.592h-.358v-.46h-.011a.931.931 0 01-.905.528c-.8 0-1.2-.66-1.2-1.519 0-.882.342-1.52 1.2-1.52a.978.978 0 01.905.558h.011v-1.855h.358zm-1.217-.239c.637 0 .86-.683.86-1.212s-.222-1.212-.86-1.212c-.683 0-.86.648-.86 1.212s.177 1.212.86 1.212" transform="translate(-18.133 -12.904)"/><path id="Path_1865" data-name="Path 1865" d="M81.8 57.915a2.365 2.365 0 01-.842.159c-.962 0-1.32-.648-1.32-1.518 0-.888.49-1.52 1.223-1.52.819 0 1.155.66 1.155 1.439v.182h-1.99a.98.98 0 00.956 1.11 1.865 1.865 0 00.814-.216zm-.177-1.565c0-.506-.2-1.007-.74-1.007a.949.949 0 00-.854 1.007z" transform="translate(-19.27 -13.318)"/><path id="Path_1866" data-name="Path 1866" d="M84.249 55.753a5.2 5.2 0 00-.023-.648h.359v.557h.015a.859.859 0 01.745-.626 1.039 1.039 0 01.25.034v.375a.938.938 0 00-.262-.034c-.569 0-.722.638-.722 1.161v1.434h-.359z" transform="translate(-20.381 -13.318)"/><path id="Path_1867" data-name="Path 1867" d="M88.936 57.54h-.011a1.022 1.022 0 01-.922.535c-.825 0-.956-.558-.956-.82 0-.973 1.035-1.018 1.787-1.018h.066v-.148c0-.5-.176-.746-.66-.746a1.542 1.542 0 00-.854.239v-.347a2.3 2.3 0 01.854-.2c.717 0 1.019.324 1.019 1.082V57.4a4.078 4.078 0 00.029.609h-.353zm-.034-1h-.1c-.62 0-1.36.063-1.36.7 0 .381.273.523.6.523.842 0 .859-.734.859-1.048z" transform="translate(-21.064 -13.318)"/><path id="Path_1868" data-name="Path 1868" d="M92.821 55.169h-.66v1.879c0 .261.1.477.387.477a.847.847 0 00.33-.067l.023.295a1.29 1.29 0 01-.439.08c-.637 0-.66-.438-.66-.967v-1.7h-.569v-.306h.567v-.7l.359-.126v.826h.66z" transform="translate(-22.077 -13.076)"/><path id="Path_1869" data-name="Path 1869" d="M95.12 53.952h-.359v-.478h.359zm-.359.774h.359v2.9h-.359z" transform="translate(-22.93 -12.94)"/><path id="Path_1870" data-name="Path 1870" d="M98.074 55.035a1.529 1.529 0 11-1.355 1.52 1.355 1.355 0 011.355-1.52m0 2.732c.626 0 .962-.54.962-1.212s-.336-1.212-.962-1.212-.962.54-.962 1.212.336 1.212.962 1.212" transform="translate(-23.404 -13.318)"/><path id="Path_1871" data-name="Path 1871" d="M101.763 55.787c0-.222 0-.45-.023-.682h.347v.517h.011a.921.921 0 01.938-.586c.716 0 .99.478.99 1.115v1.856h-.358v-1.764c0-.547-.193-.9-.689-.9-.655 0-.859.575-.859 1.059v1.6h-.359z" transform="translate(-24.619 -13.318)"/><path id="Path_1872" data-name="Path 1872" d="M16.121 1.317A21.761 21.761 0 008.075 0 21.766 21.766 0 00.028 1.317S-.242 7.151.9 10.45a12.2 12.2 0 007.172 7.429 12.2 12.2 0 007.173-7.429c1.141-3.3.872-9.133.872-9.133"/><path id="Path_1873" data-name="Path 1873" d="M14.285 7.176v3.214h-3.75v3.751H7.321V10.39h-3.75V7.176h3.75V3.427h3.213v3.749z" transform="translate(-.864 -.83)" fill="#fff"/><path id="Path_1874" data-name="Path 1874" d="M177.235 1.959h1.889V2.3h-1.5v1.417h1.428v.342h-1.428v1.872h-.393z" transform="translate(-42.888 -.474)"/><path id="Path_1875" data-name="Path 1875" d="M183.044 6.159a2.374 2.374 0 01-.841.159c-.962 0-1.32-.648-1.32-1.518 0-.888.489-1.52 1.223-1.52.819 0 1.156.66 1.156 1.439V4.9h-1.987a.98.98 0 00.956 1.11 1.856 1.856 0 00.813-.216zm-.176-1.565c0-.506-.205-1.007-.74-1.007a.949.949 0 00-.854 1.007z" transform="translate(-43.77 -.794)"/><path id="Path_1876" data-name="Path 1876" d="M187.75 5.836h-.358v-.461h-.012a.929.929 0 01-.9.529c-.8 0-1.195-.659-1.195-1.519 0-.882.341-1.52 1.195-1.52a.975.975 0 01.9.559h.012V1.568h.358zm-1.218-.236c.637 0 .86-.682.86-1.212s-.222-1.212-.86-1.212c-.683 0-.86.649-.86 1.212s.177 1.212.86 1.212" transform="translate(-44.835 -.38)"/><path id="Path_1877" data-name="Path 1877" d="M192.139 6.159a2.375 2.375 0 01-.841.159c-.961 0-1.32-.648-1.32-1.518 0-.888.489-1.52 1.223-1.52.819 0 1.156.66 1.156 1.439V4.9h-1.987a.981.981 0 00.956 1.11 1.856 1.856 0 00.813-.216zm-.176-1.565c0-.506-.205-1.007-.74-1.007a.949.949 0 00-.854 1.007z" transform="translate(-45.971 -.794)"/><path id="Path_1878" data-name="Path 1878" d="M194.592 4a5.4 5.4 0 00-.022-.649h.358v.558h.011a.861.861 0 01.745-.626 1.045 1.045 0 01.251.034v.373a.911.911 0 00-.262-.034c-.569 0-.722.637-.722 1.161v1.434h-.359z" transform="translate(-47.082 -.794)"/><path id="Path_1879" data-name="Path 1879" d="M199.281 5.784h-.012a1.021 1.021 0 01-.922.535c-.825 0-.955-.558-.955-.82 0-.973 1.035-1.018 1.786-1.018h.069v-.149c0-.494-.177-.745-.66-.745a1.545 1.545 0 00-.854.239v-.347a2.3 2.3 0 01.854-.2c.716 0 1.019.324 1.019 1.082v1.28a4.187 4.187 0 00.028.609h-.352zm-.034-1h-.1c-.62 0-1.36.063-1.36.7 0 .381.274.523.6.523.843 0 .86-.734.86-1.047z" transform="translate(-47.765 -.794)"/><path id="Rectangle_918" data-name="Rectangle 918" transform="translate(153.135 1.188)" d="M0 0h.359v4.268H0z"/><path id="Path_1880" data-name="Path 1880" d="M206.951 1.959h.985a1.776 1.776 0 011.986 1.98c0 1.44-.961 1.992-2.276 1.992h-.694zm.393 3.631h.325c1.126 0 1.86-.456 1.86-1.673a1.443 1.443 0 00-1.61-1.617h-.575z" transform="translate(-50.078 -.474)"/><path id="Path_1881" data-name="Path 1881" d="M214.41 6.159a2.374 2.374 0 01-.841.159c-.961 0-1.32-.648-1.32-1.518 0-.888.489-1.52 1.223-1.52.819 0 1.156.66 1.156 1.439V4.9h-1.987a.981.981 0 00.956 1.11 1.856 1.856 0 00.813-.216zm-.176-1.565c0-.506-.205-1.007-.74-1.007a.949.949 0 00-.854 1.007z" transform="translate(-51.36 -.794)"/><path id="Path_1882" data-name="Path 1882" d="M216.826 3.348h.358l-.022.529h.011a1 1 0 01.927-.6c.854 0 1.2.637 1.2 1.52 0 .859-.4 1.519-1.2 1.519a.9.9 0 01-.9-.564h-.012v1.69h-.358zm1.217.239c-.637 0-.86.683-.86 1.213s.222 1.211.86 1.211c.683 0 .86-.648.86-1.211s-.177-1.213-.86-1.213" transform="translate(-52.468 -.794)"/><path id="Path_1883" data-name="Path 1883" d="M223.225 5.784h-.012a1.021 1.021 0 01-.922.535c-.825 0-.956-.558-.956-.82 0-.973 1.036-1.018 1.787-1.018h.069v-.149c0-.494-.177-.745-.66-.745a1.545 1.545 0 00-.854.239v-.347a2.3 2.3 0 01.854-.2c.717 0 1.019.324 1.019 1.082v1.28a4.187 4.187 0 00.028.609h-.352zm-.034-1h-.1c-.62 0-1.36.063-1.36.7 0 .381.274.523.6.523.843 0 .86-.734.86-1.047z" transform="translate(-53.559 -.794)"/><path id="Path_1884" data-name="Path 1884" d="M225.958 4a5.4 5.4 0 00-.022-.649h.358v.558h.011a.861.861 0 01.745-.626 1.045 1.045 0 01.251.034v.373a.91.91 0 00-.262-.034c-.569 0-.722.637-.722 1.161v1.434h-.359z" transform="translate(-54.672 -.794)"/><path id="Path_1885" data-name="Path 1885" d="M230.194 3.414h-.66v1.878c0 .262.1.478.387.478a.836.836 0 00.329-.067l.023.3a1.3 1.3 0 01-.438.08c-.637 0-.66-.438-.66-.968V3.414h-.569v-.307h.569v-.7l.359-.125v.825h.66z" transform="translate(-55.318 -.553)"/><path id="Path_1886" data-name="Path 1886" d="M235.633 6.251V4.322c0-.41-.154-.735-.615-.735-.393 0-.78.337-.78 1.059v1.6h-.359V4.322c0-.41-.154-.735-.614-.735-.393 0-.779.337-.779 1.059v1.6h-.359V4.031c0-.222 0-.45-.022-.683h.346v.49l.011.005a.913.913 0 01.905-.563.731.731 0 01.768.615h.011a.974.974 0 01.928-.615.885.885 0 01.916.973v2z" transform="translate(-56.165 -.794)"/><path id="Path_1887" data-name="Path 1887" d="M240.847 6.159a2.375 2.375 0 01-.841.159c-.962 0-1.32-.648-1.32-1.518 0-.888.489-1.52 1.223-1.52.819 0 1.156.66 1.156 1.439V4.9h-1.987a.98.98 0 00.956 1.11 1.856 1.856 0 00.813-.216zm-.176-1.565c0-.506-.205-1.007-.74-1.007a.949.949 0 00-.854 1.007z" transform="translate(-57.757 -.794)"/><path id="Path_1888" data-name="Path 1888" d="M243.3 4.031c0-.222 0-.45-.022-.683h.347v.518h.011a.921.921 0 01.939-.586c.717 0 .99.478.99 1.115v1.856h-.358V4.487c0-.547-.194-.9-.69-.9-.654 0-.858.575-.858 1.059v1.6h-.359z" transform="translate(-58.869 -.794)"/><path id="Path_1889" data-name="Path 1889" d="M249.21 3.414h-.66v1.878c0 .262.1.478.387.478a.836.836 0 00.329-.067l.023.3a1.3 1.3 0 01-.438.08c-.637 0-.66-.438-.66-.968V3.414h-.569v-.307h.569v-.7l.359-.125v.825h.66z" transform="translate(-59.92 -.553)"/><path id="Path_1890" data-name="Path 1890" d="M254.881 3.279a1.355 1.355 0 011.355 1.52 1.363 1.363 0 11-2.709 0 1.356 1.356 0 011.355-1.52m0 2.732c.626 0 .962-.54.962-1.212s-.336-1.212-.962-1.212-.962.541-.962 1.212.336 1.212.962 1.212" transform="translate(-61.349 -.794)"/><path id="Path_1891" data-name="Path 1891" d="M258.713 3.22h-.586v-.308h.586V2.7c0-.609.023-1.223.769-1.223a.834.834 0 01.335.057l-.022.313a.642.642 0 00-.285-.063c-.49 0-.438.53-.438.877v.25h.654v.309h-.654v2.595h-.359z" transform="translate(-62.462 -.358)"/><path id="Path_1892" data-name="Path 1892" d="M264.385 1.959h1.946V2.3h-1.552v1.417h1.474v.342h-1.474v1.53h1.621v.341h-2.014z" transform="translate(-63.976 -.474)"/><path id="Path_1893" data-name="Path 1893" d="M270.491 3.735a1.658 1.658 0 00-.62-.148 1.08 1.08 0 00-1.093 1.213 1.1 1.1 0 001.053 1.212 1.847 1.847 0 00.654-.131l.034.336a2.143 2.143 0 01-.745.1 1.375 1.375 0 01-1.389-1.517 1.407 1.407 0 011.433-1.52 2.168 2.168 0 01.7.114z" transform="translate(-64.944 -.794)"/><path id="Path_1894" data-name="Path 1894" d="M273.648 3.279A1.355 1.355 0 01275 4.8a1.363 1.363 0 11-2.708 0 1.355 1.355 0 011.354-1.52m0 2.732c.626 0 .962-.54.962-1.212s-.336-1.212-.962-1.212-.962.541-.962 1.212.337 1.212.962 1.212" transform="translate(-65.89 -.794)"/><path id="Path_1895" data-name="Path 1895" d="M277.336 4.031c0-.222 0-.45-.022-.683h.346v.518h.011a.921.921 0 01.939-.586c.717 0 .99.478.99 1.115v1.856h-.358V4.487c0-.547-.194-.9-.69-.9-.654 0-.858.575-.858 1.059v1.6h-.359z" transform="translate(-67.105 -.794)"/><path id="Path_1896" data-name="Path 1896" d="M283.163 3.279a1.355 1.355 0 011.355 1.52 1.363 1.363 0 11-2.709 0 1.356 1.356 0 011.355-1.52m0 2.732c.626 0 .962-.54.962-1.212s-.336-1.212-.962-1.212-.962.541-.962 1.212.336 1.212.962 1.212" transform="translate(-68.192 -.794)"/><path id="Path_1897" data-name="Path 1897" d="M290.356 6.251V4.322c0-.41-.154-.735-.615-.735-.393 0-.78.337-.78 1.059v1.6h-.361V4.322c0-.41-.153-.735-.614-.735-.393 0-.779.337-.779 1.059v1.6h-.359V4.031c0-.222 0-.45-.022-.683h.347v.49l.011.005a.913.913 0 01.905-.563.731.731 0 01.768.615h.011a.974.974 0 01.928-.615.885.885 0 01.916.973v2z" transform="translate(-69.407 -.794)"/><path id="Path_1898" data-name="Path 1898" d="M294.053 2.2h-.359v-.482h.359zm-.359.773h.359v2.9h-.359z" transform="translate(-71.069 -.416)"/><path id="Path_1899" data-name="Path 1899" d="M297.766 3.735a1.658 1.658 0 00-.62-.148 1.08 1.08 0 00-1.093 1.213 1.1 1.1 0 001.053 1.212 1.847 1.847 0 00.654-.131l.034.336a2.142 2.142 0 01-.745.1A1.375 1.375 0 01295.66 4.8a1.407 1.407 0 011.433-1.52 2.168 2.168 0 01.7.114z" transform="translate(-71.544 -.794)"/><path id="Path_1900" data-name="Path 1900" d="M303.665 1.959h.443l1.577 3.972h-.41l-.426-1.064h-2l-.427 1.064h-.381zm.193.375l-.866 2.191h1.725z" transform="translate(-73.088 -.474)"/><path id="Path_1901" data-name="Path 1901" d="M308.259 3.22h-.586v-.308h.586V2.7c0-.609.023-1.223.769-1.223a.834.834 0 01.335.057l-.023.313a.639.639 0 00-.284-.063c-.49 0-.438.53-.438.877v.25h.654v.309h-.654v2.595h-.359z" transform="translate(-74.451 -.358)"/><path id="Path_1902" data-name="Path 1902" d="M311.208 3.22h-.586v-.308h.586V2.7c0-.609.023-1.223.769-1.223a.834.834 0 01.335.057l-.023.313a.639.639 0 00-.289-.062c-.49 0-.438.53-.438.877v.25h.654v.308h-.654v2.595h-.359z" transform="translate(-75.165 -.358)"/><path id="Path_1903" data-name="Path 1903" d="M315.754 5.784h-.012a1.021 1.021 0 01-.922.535c-.825 0-.956-.558-.956-.82 0-.973 1.036-1.018 1.787-1.018h.069v-.149c0-.494-.177-.745-.66-.745a1.545 1.545 0 00-.854.239v-.347a2.3 2.3 0 01.854-.2c.717 0 1.019.324 1.019 1.082v1.28a4.192 4.192 0 00.028.609h-.352zm-.034-1h-.1c-.62 0-1.36.063-1.36.7 0 .381.274.523.6.523.843 0 .86-.734.86-1.047z" transform="translate(-75.949 -.794)"/><path id="Path_1904" data-name="Path 1904" d="M318.853 2.2h-.359v-.482h.359zm-.359.773h.359v2.9h-.359z" transform="translate(-77.07 -.416)"/><path id="Path_1905" data-name="Path 1905" d="M320.738 4a5.4 5.4 0 00-.022-.649h.358v.558h.011a.861.861 0 01.745-.626 1.045 1.045 0 01.251.034v.373a.91.91 0 00-.262-.034c-.569 0-.722.637-.722 1.161v1.434h-.359z" transform="translate(-77.607 -.794)"/><path id="Path_1906" data-name="Path 1906" d="M323.527 5.829a1.7 1.7 0 00.757.182c.341 0 .644-.188.644-.517 0-.69-1.395-.581-1.395-1.423 0-.575.467-.791.944-.791a2.28 2.28 0 01.717.131l-.034.313a1.676 1.676 0 00-.643-.137c-.371 0-.626.114-.626.484 0 .54 1.428.472 1.428 1.423 0 .614-.575.825-1.013.825a2.189 2.189 0 01-.814-.136z" transform="translate(-78.279 -.794)"/><path id="Path_1907" data-name="Path 1907" d="M327.476 6.568h.478l-.45 1.241h-.359z" transform="translate(-79.163 -1.59)"/><path id="Path_1908" data-name="Path 1908" d="M177.3 12.308h1.946v.341H177.7v1.417h1.474v.342H177.7v1.53h1.621v.341H177.3z" transform="translate(-42.904 -2.979)"/><path id="Path_1909" data-name="Path 1909" d="M183.832 16.186h-.358v-.461h-.012a.929.929 0 01-.9.529c-.8 0-1.195-.659-1.195-1.519 0-.882.341-1.52 1.195-1.52a.975.975 0 01.9.559h.012v-1.856h.358zm-1.217-.239c.637 0 .86-.682.86-1.212s-.222-1.212-.86-1.212c-.683 0-.86.649-.86 1.212s.177 1.212.86 1.212" transform="translate(-43.887 -2.884)"/><path id="Path_1910" data-name="Path 1910" d="M188.61 15.938c0 .222 0 .45.023.683h-.347V16.1h-.011a.921.921 0 01-.939.586c-.717 0-.99-.478-.99-1.115v-1.852h.359v1.765c0 .547.193.9.689.9.654 0 .859-.575.859-1.059v-1.6h.359z" transform="translate(-45.092 -3.32)"/><path id="Path_1911" data-name="Path 1911" d="M192.923 14.085a1.658 1.658 0 00-.62-.148 1.08 1.08 0 00-1.093 1.212 1.1 1.1 0 001.053 1.212 1.847 1.847 0 00.654-.131l.034.336a2.143 2.143 0 01-.745.1 1.375 1.375 0 01-1.389-1.519 1.407 1.407 0 011.433-1.52 2.168 2.168 0 01.7.114z" transform="translate(-46.174 -3.298)"/><path id="Path_1912" data-name="Path 1912" d="M196.616 16.134h-.016a1.021 1.021 0 01-.922.535c-.825 0-.956-.558-.956-.82 0-.973 1.036-1.018 1.787-1.018h.069v-.149c0-.494-.177-.745-.66-.745a1.545 1.545 0 00-.854.239v-.347a2.3 2.3 0 01.854-.2c.717 0 1.019.324 1.019 1.082v1.28a4.187 4.187 0 00.028.609h-.352zm-.034-1h-.1c-.62 0-1.36.063-1.36.7 0 .381.274.523.6.523.843 0 .86-.734.86-1.047z" transform="translate(-47.12 -3.299)"/><path id="Path_1913" data-name="Path 1913" d="M200.5 13.764h-.66v1.878c0 .262.1.478.387.478a.836.836 0 00.329-.067l.023.3a1.3 1.3 0 01-.438.08c-.637 0-.659-.438-.659-.968v-1.701h-.569v-.308h.569v-.7l.359-.125v.825h.66z" transform="translate(-48.134 -3.057)"/><path id="Path_1914" data-name="Path 1914" d="M202.8 12.545h-.359v-.478h.359zm-.359.774h.359v2.9h-.359z" transform="translate(-48.987 -2.92)"/><path id="Path_1915" data-name="Path 1915" d="M205.754 13.629a1.356 1.356 0 011.355 1.52 1.363 1.363 0 11-2.708 0 1.355 1.355 0 011.354-1.52m0 2.732c.626 0 .961-.54.961-1.212s-.335-1.212-.961-1.212-.962.541-.962 1.212.337 1.212.962 1.212" transform="translate(-49.461 -3.298)"/><path id="Path_1916" data-name="Path 1916" d="M209.442 14.381c0-.222 0-.45-.022-.683h.347v.518h.011a.921.921 0 01.939-.586c.717 0 .99.478.99 1.115V16.6h-.358v-1.763c0-.547-.194-.9-.69-.9-.654 0-.858.575-.858 1.059v1.6h-.359z" transform="translate(-50.676 -3.299)"/><path id="Path_1917" data-name="Path 1917" d="M218.474 16.134h-.012a1.021 1.021 0 01-.922.535c-.825 0-.955-.558-.955-.82 0-.973 1.035-1.018 1.786-1.018h.069v-.149c0-.494-.177-.745-.66-.745a1.545 1.545 0 00-.854.239v-.347a2.3 2.3 0 01.854-.2c.716 0 1.019.324 1.019 1.082v1.28a4.187 4.187 0 00.028.609h-.353zm-.034-1h-.1c-.62 0-1.36.063-1.36.7 0 .381.274.523.6.523.843 0 .86-.734.86-1.047z" transform="translate(-52.41 -3.299)"/><path id="Path_1918" data-name="Path 1918" d="M221.208 14.381c0-.222 0-.45-.022-.683h.347v.518h.011a.921.921 0 01.939-.586c.717 0 .99.478.99 1.115V16.6h-.358v-1.763c0-.547-.194-.9-.69-.9-.654 0-.858.575-.858 1.059v1.6h-.359z" transform="translate(-53.523 -3.299)"/><path id="Path_1919" data-name="Path 1919" d="M228.216 16.186h-.358v-.461h-.012a.929.929 0 01-.9.529c-.8 0-1.195-.659-1.195-1.519 0-.882.341-1.52 1.195-1.52a.975.975 0 01.9.559h.012v-1.856h.358zM227 15.947c.637 0 .86-.682.86-1.212s-.222-1.212-.86-1.212c-.683 0-.86.649-.86 1.212s.177 1.212.86 1.212" transform="translate(-54.627 -2.884)"/><path id="Path_1920" data-name="Path 1920" d="M233.467 12.308h1.025c.706 0 1.167.3 1.167 1.03a.936.936 0 01-.882.916v.012c.318.039.387.21.512.478l.677 1.536h-.432l-.575-1.343c-.228-.512-.4-.529-.774-.529h-.324v1.872h-.393zm.393 1.759h.415c.461 0 .99-.177.99-.728 0-.649-.461-.689-1-.689h-.4z" transform="translate(-56.495 -2.979)"/><path id="Path_1921" data-name="Path 1921" d="M240.034 16.509a2.375 2.375 0 01-.841.159c-.962 0-1.32-.648-1.32-1.518 0-.888.489-1.52 1.223-1.52.819 0 1.156.66 1.156 1.439v.182h-1.987a.98.98 0 00.956 1.11 1.856 1.856 0 00.813-.216zm-.176-1.565c0-.506-.205-1.007-.74-1.007a.949.949 0 00-.854 1.007z" transform="translate(-57.561 -3.299)"/><path id="Path_1922" data-name="Path 1922" d="M242.191 16.179a1.7 1.7 0 00.757.182c.341 0 .644-.188.644-.517 0-.69-1.395-.581-1.395-1.423 0-.575.467-.791.944-.791a2.28 2.28 0 01.717.131l-.034.313a1.677 1.677 0 00-.643-.137c-.371 0-.626.114-.626.484 0 .54 1.428.472 1.428 1.423 0 .614-.575.825-1.013.825a2.189 2.189 0 01-.814-.136z" transform="translate(-58.597 -3.299)"/><path id="Path_1923" data-name="Path 1923" d="M247.876 16.509a2.374 2.374 0 01-.841.159c-.962 0-1.32-.648-1.32-1.518 0-.888.489-1.52 1.223-1.52.819 0 1.156.66 1.156 1.439v.182h-1.987a.98.98 0 00.956 1.11 1.856 1.856 0 00.813-.216zm-.176-1.565c0-.506-.205-1.007-.74-1.007a.949.949 0 00-.854 1.007z" transform="translate(-59.458 -3.299)"/><path id="Path_1924" data-name="Path 1924" d="M251.933 16.134h-.012a1.021 1.021 0 01-.922.535c-.825 0-.955-.558-.955-.82 0-.973 1.035-1.018 1.786-1.018h.069v-.149c0-.494-.177-.745-.66-.745a1.545 1.545 0 00-.854.239v-.347a2.3 2.3 0 01.854-.2c.716 0 1.019.324 1.019 1.082v1.28a4.187 4.187 0 00.028.609h-.352zm-.034-1h-.1c-.62 0-1.36.063-1.36.7 0 .381.274.523.6.523.843 0 .86-.734.86-1.047z" transform="translate(-60.506 -3.299)"/><path id="Path_1925" data-name="Path 1925" d="M254.666 14.347a5.4 5.4 0 00-.022-.649H255v.558h.011a.861.861 0 01.745-.626 1.045 1.045 0 01.251.034v.376a.911.911 0 00-.262-.034c-.569 0-.722.637-.722 1.161V16.6h-.359z" transform="translate(-61.619 -3.299)"/><path id="Path_1926" data-name="Path 1926" d="M259.444 14.085a1.658 1.658 0 00-.62-.148 1.08 1.08 0 00-1.093 1.212 1.1 1.1 0 001.053 1.212 1.847 1.847 0 00.654-.131l.034.336a2.143 2.143 0 01-.745.1 1.375 1.375 0 01-1.389-1.519 1.407 1.407 0 011.433-1.52 2.168 2.168 0 01.7.114z" transform="translate(-62.271 -3.298)"/><path id="Path_1927" data-name="Path 1927" d="M261.539 11.917h.359v1.856h.011a.984.984 0 01.905-.558c.779 0 .99.518.99 1.235v1.736h-.358v-1.73c0-.5-.1-.934-.69-.934-.637 0-.858.6-.858 1.11v1.554h-.359z" transform="translate(-63.288 -2.884)"/><path id="Path_1928" data-name="Path 1928" d="M269.02 12.308h1.946v.341h-1.552v1.417h1.474v.342h-1.474v1.53h1.621v.341h-2.015z" transform="translate(-65.098 -2.979)"/><path id="Path_1929" data-name="Path 1929" d="M274.437 12.308h.443l1.577 3.972h-.41l-.426-1.064h-2l-.427 1.064h-.381zm.193.375l-.866 2.191h1.725z" transform="translate(-66.015 -2.979)"/><path id="Path_1930" data-name="Path 1930" d="M278.947 12.308h1.946v.341h-1.552v1.417h1.474v.342h-1.474v1.53h1.621v.341h-2.014z" transform="translate(-67.5 -2.979)"/><path id="Path_1931" data-name="Path 1931" d="M283.3 12.308h1.025c.706 0 1.167.3 1.167 1.03a.936.936 0 01-.882.916v.012c.318.039.387.21.512.478l.677 1.536h-.432l-.575-1.343c-.228-.512-.4-.529-.774-.529h-.324v1.872h-.394zm.393 1.759h.415c.461 0 .99-.177.99-.728 0-.649-.461-.689-1-.689h-.4z" transform="translate(-68.553 -2.979)"/><path id="Path_1932" data-name="Path 1932" d="M179.358 23.362a2.053 2.053 0 00-.808-.171.553.553 0 00-.627.552c0 .688 1.742.4 1.742 1.73 0 .871-.689 1.2-1.491 1.2a3.515 3.515 0 01-1.019-.153l.074-.717a1.923 1.923 0 00.9.245c.3 0 .706-.154.706-.512 0-.757-1.741-.444-1.741-1.759 0-.888.688-1.212 1.389-1.212a2.988 2.988 0 01.95.143z" transform="translate(-42.853 -5.461)"/><path id="Path_1933" data-name="Path 1933" d="M181.61 24.321h-.563v-.557h.563v-.587l.763-.244v.831h.677v.557h-.677v1.366c0 .251.068.484.359.484a.688.688 0 00.347-.08l.023.6a2.011 2.011 0 01-.563.068.862.862 0 01-.928-.951z" transform="translate(-43.81 -5.55)"/><path id="Path_1934" data-name="Path 1934" d="M184.562 24.16a2.641 2.641 0 011.019-.221c.894 0 1.264.37 1.264 1.235v.375c0 .3.006.518.011.735s.017.427.034.655h-.672a3.759 3.759 0 01-.034-.439h-.011a1.047 1.047 0 01-.905.506.935.935 0 01-1.024-.87.862.862 0 01.5-.837 2.326 2.326 0 01.984-.171h.421c0-.472-.21-.631-.66-.631a1.527 1.527 0 00-.9.319zm.894 2.288a.649.649 0 00.535-.262.971.971 0 00.159-.6h-.331c-.341 0-.847.058-.847.507 0 .25.211.359.484.359" transform="translate(-44.584 -5.793)"/><path id="Path_1935" data-name="Path 1935" d="M188.926 24.321h-.563v-.557h.563v-.587l.763-.244v.831h.677v.557h-.677v1.366c0 .251.068.484.359.484a.688.688 0 00.347-.08l.023.6a2.011 2.011 0 01-.563.068.862.862 0 01-.928-.951z" transform="translate(-45.58 -5.55)"/><path id="Path_1936" data-name="Path 1936" d="M194.1 26.773a2.008 2.008 0 01-1.007.233 1.392 1.392 0 01-1.531-1.519 1.371 1.371 0 011.36-1.548c1.087 0 1.394.746 1.394 1.77h-2.025a.766.766 0 00.837.74 1.976 1.976 0 00.973-.3zm-.512-1.588c-.022-.369-.193-.688-.619-.688a.664.664 0 00-.678.688z" transform="translate(-46.354 -5.793)"/><path id="Path_1937" data-name="Path 1937" d="M200.473 23.362a2.053 2.053 0 00-.808-.171.553.553 0 00-.627.552c0 .688 1.742.4 1.742 1.73 0 .871-.689 1.2-1.491 1.2a3.515 3.515 0 01-1.019-.153l.074-.717a1.923 1.923 0 00.9.245c.3 0 .706-.154.706-.512 0-.757-1.741-.444-1.741-1.759 0-.888.688-1.212 1.389-1.212a2.988 2.988 0 01.95.143z" transform="translate(-47.963 -5.461)"/><path id="Path_1938" data-name="Path 1938" d="M204.865 26.773a2.008 2.008 0 01-1.007.233 1.392 1.392 0 01-1.531-1.519 1.371 1.371 0 011.36-1.548c1.087 0 1.394.746 1.394 1.77h-2.025a.766.766 0 00.837.74 1.976 1.976 0 00.973-.3zm-.512-1.588c-.022-.369-.193-.688-.619-.688a.664.664 0 00-.678.688z" transform="translate(-48.959 -5.793)"/><path id="Path_1939" data-name="Path 1939" d="M208.7 24.639a1.156 1.156 0 00-.518-.108c-.472 0-.773.377-.773.928s.256.957.791.957a1.61 1.61 0 00.585-.137l.035.632a2.5 2.5 0 01-.763.1 1.385 1.385 0 01-1.445-1.548 1.386 1.386 0 011.417-1.519 2.493 2.493 0 01.74.1z" transform="translate(-49.996 -5.793)"/><path id="Path_1940" data-name="Path 1940" d="M210.325 24.007H211v.666h.011a.9.9 0 01.8-.734.858.858 0 01.233.022v.769a.769.769 0 00-.341-.062c-.62 0-.62.774-.62 1.195v1.076h-.763z" transform="translate(-50.895 -5.793)"/><path id="Path_1941" data-name="Path 1941" d="M215.491 26.773a2.008 2.008 0 01-1.007.233 1.392 1.392 0 01-1.531-1.519 1.371 1.371 0 011.36-1.548c1.087 0 1.395.746 1.395 1.77h-2.026a.766.766 0 00.837.74 1.978 1.978 0 00.973-.3zm-.512-1.588c-.023-.369-.194-.688-.62-.688a.664.664 0 00-.678.688z" transform="translate(-51.531 -5.793)"/><path id="Path_1942" data-name="Path 1942" d="M217.635 24.321h-.563v-.557h.563v-.587l.763-.244v.831h.677v.557h-.675v1.366c0 .251.068.484.359.484a.688.688 0 00.347-.08l.023.6a2.011 2.011 0 01-.563.068.862.862 0 01-.928-.951z" transform="translate(-52.527 -5.55)"/><path id="Path_1943" data-name="Path 1943" d="M220.586 24.16a2.641 2.641 0 011.019-.221c.894 0 1.264.37 1.264 1.235v.375c0 .3.006.518.011.735s.017.427.034.655h-.672a3.759 3.759 0 01-.034-.439h-.008a1.046 1.046 0 01-.9.506.935.935 0 01-1.025-.87.862.862 0 01.5-.837 2.326 2.326 0 01.984-.171h.421c0-.472-.21-.631-.66-.631a1.527 1.527 0 00-.9.319zm.894 2.288a.649.649 0 00.535-.262.971.971 0 00.159-.6h-.33c-.341 0-.847.058-.847.507 0 .25.211.359.484.359" transform="translate(-53.301 -5.793)"/><path id="Path_1944" data-name="Path 1944" d="M224.823 24.007h.677v.666h.011a.9.9 0 01.8-.734.858.858 0 01.233.022v.769a.769.769 0 00-.341-.062c-.62 0-.62.774-.62 1.195v1.076h-.763z" transform="translate(-54.403 -5.793)"/><path id="Path_1945" data-name="Path 1945" d="M227.854 22.361h.763v.728h-.763zm0 1.264h.763v2.93h-.763z" transform="translate(-55.137 -5.411)"/><path id="Path_1946" data-name="Path 1946" d="M230.1 24.16a2.641 2.641 0 011.019-.221c.894 0 1.264.37 1.264 1.235v.375c0 .3.006.518.011.735s.017.427.034.655h-.672a3.759 3.759 0 01-.034-.439h-.011a1.047 1.047 0 01-.905.506.935.935 0 01-1.024-.87.862.862 0 01.5-.837 2.326 2.326 0 01.984-.171h.421c0-.472-.21-.631-.66-.631a1.527 1.527 0 00-.9.319zm.9 2.289a.649.649 0 00.535-.262.971.971 0 00.159-.6h-.331c-.341 0-.847.058-.847.507 0 .25.211.359.484.359" transform="translate(-55.603 -5.793)"/><path id="Path_1947" data-name="Path 1947" d="M234.465 24.321h-.565v-.557h.563v-.587l.763-.244v.831h.677v.557h-.677v1.366c0 .251.068.484.359.484a.688.688 0 00.347-.08l.023.6a2.011 2.011 0 01-.563.068.862.862 0 01-.928-.951z" transform="translate(-56.6 -5.55)"/><path id="Path_1948" data-name="Path 1948" d="M239.733 24.137h-.563v-.557h.563v-.41a.9.9 0 01.933-1 2.7 2.7 0 01.558.063l-.062.631a.592.592 0 00-.331-.1c-.256 0-.336.221-.336.45v.365h.666v.557h-.661v2.373h-.763z" transform="translate(-57.875 -5.366)"/><path id="Path_1949" data-name="Path 1949" d="M243.86 23.939a1.467 1.467 0 011.536 1.553 1.534 1.534 0 01-3.067 0 1.466 1.466 0 011.531-1.553m0 2.476c.586 0 .74-.523.74-1.013a.747.747 0 10-1.474 0c0 .484.154 1.013.735 1.013" transform="translate(-58.639 -5.793)"/><path id="Path_1950" data-name="Path 1950" d="M247.3 24.007h.678v.666h.011a.9.9 0 01.8-.734.858.858 0 01.233.022v.769a.769.769 0 00-.341-.062c-.62 0-.62.774-.62 1.195v1.076h-.761z" transform="translate(-59.841 -5.793)"/><path id="Path_1951" data-name="Path 1951" d="M252.595 22.655h2.345v.626h-1.548v.979h1.417v.626h-1.417V26h1.558v.626h-2.355z" transform="translate(-61.123 -5.482)"/><path id="Path_1952" data-name="Path 1952" d="M258.68 26.2h-.011a1.089 1.089 0 01-.9.4c-.9 0-1.229-.739-1.229-1.542s.33-1.525 1.229-1.525a1.042 1.042 0 01.876.409h.011v-1.677h.763v4.268h-.74zm-.7-.193c.506 0 .672-.535.672-.951s-.194-.933-.684-.933-.631.54-.631.933.143.951.644.951" transform="translate(-62.078 -5.388)"/><path id="Path_1953" data-name="Path 1953" d="M264.177 26.959h-.723v-.4h-.011a1.221 1.221 0 01-.961.466c-.694 0-1-.49-1-1.15v-1.846h.763v1.565c0 .359.005.843.494.843.553 0 .672-.6.672-.974v-1.434h.763z" transform="translate(-63.275 -5.815)"/><path id="Path_1954" data-name="Path 1954" d="M268.023 24.639a1.156 1.156 0 00-.518-.108c-.472 0-.773.377-.773.928s.256.957.791.957a1.609 1.609 0 00.585-.137l.035.632a2.5 2.5 0 01-.763.1 1.385 1.385 0 01-1.445-1.548 1.386 1.386 0 011.417-1.519 2.493 2.493 0 01.74.1z" transform="translate(-64.351 -5.793)"/><path id="Path_1955" data-name="Path 1955" d="M269.7 24.16a2.641 2.641 0 011.019-.221c.894 0 1.264.37 1.264 1.235v.375c0 .3.006.518.011.735s.017.427.034.655h-.672a3.749 3.749 0 01-.034-.439h-.011a1.046 1.046 0 01-.9.506.935.935 0 01-1.025-.87.862.862 0 01.5-.837 2.326 2.326 0 01.984-.171h.421c0-.472-.21-.631-.66-.631a1.527 1.527 0 00-.9.319zm.894 2.288a.649.649 0 00.535-.262.971.971 0 00.159-.6h-.33c-.341 0-.847.058-.847.507 0 .25.211.359.484.359" transform="translate(-65.185 -5.793)"/><path id="Path_1956" data-name="Path 1956" d="M274.062 24.321h-.562v-.557h.563v-.587l.763-.244v.831h.677v.557h-.677v1.366c0 .251.068.484.359.484a.688.688 0 00.347-.08l.023.6a2.011 2.011 0 01-.563.068.862.862 0 01-.928-.951z" transform="translate(-66.182 -5.55)"/><path id="Path_1957" data-name="Path 1957" d="M276.966 22.361h.763v.728h-.763zm0 1.264h.763v2.93h-.763z" transform="translate(-67.021 -5.411)"/><path id="Path_1958" data-name="Path 1958" d="M280.424 23.939a1.467 1.467 0 011.536 1.553 1.534 1.534 0 01-3.067 0 1.466 1.466 0 011.531-1.553m0 2.476c.586 0 .74-.523.74-1.013a.747.747 0 10-1.474 0c0 .484.154 1.013.734 1.013" transform="translate(-67.487 -5.793)"/><path id="Path_1959" data-name="Path 1959" d="M283.839 24.007h.723v.4h.011a1.1 1.1 0 01.961-.466c.694 0 1 .49 1 1.15v1.849h-.763v-1.567c0-.359-.005-.843-.494-.843-.553 0-.672.6-.672.974v1.433h-.763z" transform="translate(-68.684 -5.793)"/><path id="Path_1960" data-name="Path 1960" d="M288.556 26.844h.825l-.518 1.423h-.671z" transform="translate(-69.737 -6.496)"/><path id="Path_1961" data-name="Path 1961" d="M177.174 33.009h.86c.853 0 1.872-.028 1.872 1.076a.907.907 0 01-.82.921v.012c.218.017.342.233.421.409l.637 1.554h-.888l-.478-1.241c-.113-.3-.216-.409-.552-.409h-.255v1.65h-.8zm.8 1.7h.262c.393 0 .841-.057.841-.553 0-.477-.444-.517-.841-.517h-.262z" transform="translate(-42.873 -7.988)"/><path id="Path_1962" data-name="Path 1962" d="M184.163 37.126a2.008 2.008 0 01-1.007.233 1.392 1.392 0 01-1.531-1.519 1.371 1.371 0 011.36-1.548c1.087 0 1.395.746 1.395 1.77h-2.026a.766.766 0 00.837.74 1.978 1.978 0 00.973-.3zm-.512-1.588c-.023-.369-.194-.688-.62-.688a.664.664 0 00-.678.688z" transform="translate(-43.95 -8.298)"/><path id="Path_1963" data-name="Path 1963" d="M187.839 34.975a1.888 1.888 0 00-.683-.125c-.2 0-.45.074-.45.324 0 .467 1.326.171 1.326 1.23 0 .682-.609.956-1.229.956a3.408 3.408 0 01-.866-.126l.046-.625a1.668 1.668 0 00.75.193c.194 0 .5-.074.5-.359 0-.575-1.326-.182-1.326-1.24 0-.632.552-.91 1.15-.91a3.533 3.533 0 01.83.108z" transform="translate(-44.987 -8.299)"/><path id="Path_1964" data-name="Path 1964" d="M191.891 37.126a2.008 2.008 0 01-1.007.233 1.392 1.392 0 01-1.531-1.519 1.371 1.371 0 011.36-1.548c1.087 0 1.395.746 1.395 1.77h-2.026a.766.766 0 00.837.74 1.978 1.978 0 00.973-.3zm-.512-1.588c-.023-.369-.194-.688-.62-.688a.664.664 0 00-.678.688z" transform="translate(-45.82 -8.298)"/><path id="Path_1965" data-name="Path 1965" d="M193.955 34.513a2.641 2.641 0 011.019-.221c.894 0 1.264.37 1.264 1.235v.373c0 .3.006.518.011.735s.017.427.034.655h-.672a3.759 3.759 0 01-.034-.439h-.011a1.046 1.046 0 01-.9.506.935.935 0 01-1.025-.87.862.862 0 01.5-.837 2.326 2.326 0 01.984-.171h.421c0-.472-.21-.631-.66-.631a1.527 1.527 0 00-.9.319zm.894 2.288a.649.649 0 00.535-.262.971.971 0 00.159-.6h-.33c-.341 0-.847.058-.847.507 0 .25.211.359.484.359" transform="translate(-46.857 -8.298)"/><path id="Path_1966" data-name="Path 1966" d="M198.192 34.36h.677v.666h.011a.9.9 0 01.8-.734.858.858 0 01.233.022v.769a.769.769 0 00-.341-.062c-.62 0-.62.774-.62 1.195v1.076h-.763z" transform="translate(-47.959 -8.298)"/><path id="Path_1967" data-name="Path 1967" d="M202.907 34.992a1.155 1.155 0 00-.518-.108c-.473 0-.774.377-.774.928s.256.957.791.957a1.61 1.61 0 00.585-.137l.034.632a2.486 2.486 0 01-.763.1 1.537 1.537 0 01-.028-3.067 2.493 2.493 0 01.74.1z" transform="translate(-48.595 -8.298)"/><path id="Path_1968" data-name="Path 1968" d="M204.51 32.618h.763v1.736h.011a1.091 1.091 0 01.922-.466c.694 0 1 .489 1 1.149v1.85h-.763v-1.566c0-.358-.006-.842-.495-.842-.553 0-.672.6-.672.973v1.434h-.763z" transform="translate(-49.488 -7.893)"/><path id="Path_1969" data-name="Path 1969" d="M211.476 34.513a2.641 2.641 0 011.019-.221c.894 0 1.264.37 1.264 1.235v.373c0 .3.006.518.011.735s.017.427.034.655h-.672a3.759 3.759 0 01-.034-.439h-.011a1.047 1.047 0 01-.905.506.935.935 0 01-1.024-.87.862.862 0 01.5-.837 2.326 2.326 0 01.984-.171h.421c0-.472-.21-.631-.66-.631a1.527 1.527 0 00-.9.319zm.894 2.288a.649.649 0 00.535-.262.971.971 0 00.159-.6h-.33c-.341 0-.847.058-.847.507 0 .25.211.359.484.359" transform="translate(-51.096 -8.298)"/><path id="Path_1970" data-name="Path 1970" d="M215.69 34.36h.723v.4h.011a1.1 1.1 0 01.961-.466c.694 0 1 .49 1 1.15v1.849h-.763v-1.567c0-.359-.005-.843-.494-.843-.553 0-.672.6-.672.974v1.433h-.763z" transform="translate(-52.193 -8.298)"/><path id="Path_1971" data-name="Path 1971" d="M222.28 36.556h-.011a1.089 1.089 0 01-.9.4c-.9 0-1.229-.739-1.229-1.542s.33-1.525 1.229-1.525a1.042 1.042 0 01.876.409h.011v-1.68h.763v4.268h-.74zm-.7-.193c.506 0 .672-.535.672-.951s-.194-.933-.684-.933-.631.54-.631.933.143.951.644.951" transform="translate(-53.27 -7.893)"/><path id="Rectangle_919" data-name="Rectangle 919" transform="translate(172.285 25.021)" d="M0 0h.797v3.972H0z"/><path id="Path_1972" data-name="Path 1972" d="M229.482 34.36h.723v.4h.011a1.1 1.1 0 01.961-.466c.694 0 1 .49 1 1.15v1.849h-.763v-1.567c0-.359-.006-.843-.495-.843-.553 0-.672.6-.672.974v1.433h-.763z" transform="translate(-55.53 -8.298)"/><path id="Path_1973" data-name="Path 1973" d="M234.18 34.36h.723v.4h.011a1.1 1.1 0 01.961-.466c.694 0 1 .49 1 1.15v1.849h-.763v-1.567c0-.359-.006-.843-.495-.843-.553 0-.672.6-.672.974v1.433h-.763z" transform="translate(-56.667 -8.298)"/><path id="Path_1974" data-name="Path 1974" d="M240.16 34.292a1.467 1.467 0 011.536 1.553 1.534 1.534 0 01-3.067 0 1.466 1.466 0 011.531-1.553m0 2.476c.586 0 .74-.523.74-1.013a.747.747 0 10-1.474 0c0 .484.154 1.013.735 1.013" transform="translate(-57.744 -8.298)"/><path id="Path_1975" data-name="Path 1975" d="M243.146 34.382h.819l.728 2.134h.012l.7-2.134h.763l-1.082 2.93h-.858z" transform="translate(-58.837 -8.32)"/><path id="Path_1976" data-name="Path 1976" d="M247.93 34.513a2.641 2.641 0 011.019-.221c.894 0 1.264.37 1.264 1.235v.373c0 .3.006.518.011.735s.017.427.034.655h-.672a3.763 3.763 0 01-.034-.439h-.011a1.046 1.046 0 01-.9.506.935.935 0 01-1.025-.87.862.862 0 01.5-.837 2.326 2.326 0 01.984-.171h.421c0-.472-.21-.631-.66-.631a1.527 1.527 0 00-.9.319zm.894 2.288a.649.649 0 00.535-.262.971.971 0 00.159-.6h-.331c-.341 0-.847.058-.847.507 0 .25.211.359.484.359" transform="translate(-59.918 -8.298)"/><path id="Path_1977" data-name="Path 1977" d="M252.3 34.675h-.563v-.557h.563v-.587l.762-.244v.831h.678v.557h-.678v1.366c0 .251.068.484.359.484a.687.687 0 00.346-.08l.023.6a2.005 2.005 0 01-.562.068.862.862 0 01-.928-.951z" transform="translate(-60.915 -8.055)"/><path id="Path_1978" data-name="Path 1978" d="M255.2 32.715h.763v.728h-.763zm0 1.264h.763v2.93h-.763z" transform="translate(-61.753 -7.917)"/><path id="Path_1979" data-name="Path 1979" d="M258.656 34.292a1.467 1.467 0 011.536 1.553 1.534 1.534 0 01-3.067 0 1.466 1.466 0 011.531-1.553m0 2.476c.586 0 .74-.523.74-1.013a.747.747 0 10-1.474 0c0 .484.154 1.013.735 1.013" transform="translate(-62.22 -8.298)"/><path id="Path_1980" data-name="Path 1980" d="M262.071 34.36h.723v.4h.011a1.1 1.1 0 01.961-.466c.694 0 1 .49 1 1.15v1.849H264v-1.567c0-.359-.005-.843-.494-.843-.553 0-.672.6-.672.974v1.433h-.763z" transform="translate(-63.416 -8.298)"/><path id="Path_1981" data-name="Path 1981" d="M271.149 33.715a2.047 2.047 0 00-.807-.171.553.553 0 00-.627.552c0 .688 1.742.4 1.742 1.73 0 .871-.689 1.2-1.491 1.2a3.515 3.515 0 01-1.019-.153l.074-.717a1.923 1.923 0 00.9.245c.3 0 .706-.154.706-.512 0-.757-1.741-.444-1.741-1.759 0-.888.688-1.212 1.389-1.212a2.988 2.988 0 01.95.143z" transform="translate(-65.065 -7.966)"/><path id="Path_1982" data-name="Path 1982" d="M273.342 33.008h2.345v.626h-1.548v.979h1.417v.626h-1.417v1.115h1.561v.626h-2.355z" transform="translate(-66.144 -7.988)"/><path id="Path_1983" data-name="Path 1983" d="M277.536 33.009h.86c.854 0 1.872-.028 1.872 1.076a.907.907 0 01-.819.921v.012c.217.017.342.233.421.409l.637 1.554h-.888l-.478-1.241c-.113-.3-.216-.409-.551-.409h-.256v1.65h-.8zm.8 1.7h.262c.393 0 .842-.057.842-.553 0-.477-.444-.517-.842-.517h-.262z" transform="translate(-67.159 -7.988)"/><path id="Rectangle_920" data-name="Rectangle 920" transform="translate(213.938 25.021)" d="M0 0h.797v3.972H0z"/></g></g></svg>